<svg width="36" height="24" viewBox="0 0 36 24" fill="none" xmlns="http://www.w3.org/2000/svg">
<mask id="path-1-outside-1_2951_2494" maskUnits="userSpaceOnUse" x="6.22636" y="4.97873" width="28.8872" height="17.2825" fill="black">
<rect fill="white" x="6.22636" y="4.97873" width="28.8872" height="17.2825"/>
<path d="M12.0222 19.6662C11.7481 19.7236 11.4644 19.7544 11.1711 19.7587C10.8793 19.7708 10.6793 19.7718 10.5709 19.7618C10.4375 19.7489 10.3162 19.6967 10.2071 19.6051C10.098 19.5136 10.0303 19.4051 10.004 19.2799L8.60855 12.6205C8.5741 12.4561 8.60019 12.3076 8.68684 12.175C8.78132 12.0407 8.91077 11.9564 9.0752 11.9219C9.86602 11.7562 10.6893 11.7063 11.545 11.7722C12.4007 11.8381 13.1894 12.1306 13.9112 12.6496C14.6409 13.1669 15.1246 13.9933 15.3625 15.1286C15.5348 15.9507 15.4991 16.6775 15.2554 17.3089C15.0101 17.9325 14.6061 18.4422 14.0433 18.838C13.4789 19.226 12.8052 19.5021 12.0222 19.6662ZM11.7761 18.4917C12.6922 18.2997 13.3643 17.9382 13.7925 17.4071C14.2285 16.8743 14.3603 16.1969 14.188 15.3747C13.9747 14.3568 13.4836 13.671 12.7147 13.3172C11.9536 12.9617 11.0199 12.8549 9.91349 12.9969L11.0801 18.564C11.3561 18.5551 11.5881 18.5311 11.7761 18.4917ZM19.9475 17.9318C19.3916 18.0483 18.8658 18.0359 18.3703 17.8945C17.881 17.7437 17.4651 17.4753 17.1226 17.0893C16.7786 16.6955 16.5434 16.1971 16.417 15.5942C16.3136 15.1009 16.3248 14.6082 16.4505 14.1159C16.5824 13.6142 16.8193 13.1845 17.1612 12.8268C17.511 12.4674 17.9442 12.2336 18.461 12.1253C18.9386 12.0252 19.3663 12.0377 19.744 12.1629C20.1279 12.2787 20.4339 12.4516 20.6619 12.6817C20.8899 12.9118 21.0261 13.1326 21.0704 13.344C21.0918 13.4458 21.0809 13.5502 21.038 13.6573C20.995 13.7644 20.9222 13.8655 20.8195 13.9606L18.0509 16.4289C18.2114 16.6486 18.4426 16.7963 18.7446 16.872C19.0543 16.9461 19.3815 16.947 19.726 16.8748C20.1801 16.7796 20.5324 16.5301 20.7829 16.1261C20.8819 15.9746 20.998 15.8849 21.1311 15.857C21.2877 15.8241 21.4276 15.848 21.5507 15.9284C21.6816 16.0072 21.7627 16.121 21.7939 16.2698C21.8201 16.3951 21.7978 16.5224 21.7268 16.6517C21.5584 16.9404 21.3083 17.2094 20.9763 17.4588C20.6506 17.6987 20.3077 17.8564 19.9475 17.9318ZM19.8781 13.4467C19.7497 13.302 19.5912 13.2085 19.4025 13.1663C19.2122 13.1163 18.9996 13.1159 18.7647 13.1651C18.3184 13.2586 17.9746 13.49 17.7332 13.8594C17.4996 14.2271 17.4061 14.6391 17.4527 15.0952C17.4616 15.2159 17.4833 15.3585 17.5178 15.5229L19.8781 13.4467ZM25.7167 16.7229C25.1608 16.8394 24.6351 16.8269 24.1395 16.6856C23.6502 16.5347 23.2343 16.2663 22.8919 15.8803C22.5478 15.4865 22.3126 14.9882 22.1862 14.3853C22.0829 13.892 22.094 13.3992 22.2198 12.907C22.3517 12.4053 22.5886 11.9755 22.9305 11.6178C23.2802 11.2584 23.7134 11.0246 24.2302 10.9163C24.7078 10.8162 25.1355 10.8288 25.5132 10.954C25.8971 11.0697 26.2031 11.2426 26.4311 11.4727C26.6592 11.7029 26.7953 11.9236 26.8396 12.135C26.861 12.2368 26.8502 12.3413 26.8072 12.4483C26.7643 12.5554 26.6914 12.6565 26.5888 12.7516L23.8202 15.2199C23.9806 15.4397 24.2118 15.5874 24.5138 15.6631C24.8236 15.7371 25.1507 15.738 25.4952 15.6658C25.9494 15.5707 26.3017 15.3211 26.5521 14.9171C26.6512 14.7656 26.7672 14.6759 26.9003 14.648C27.0569 14.6152 27.1968 14.639 27.3199 14.7195C27.4509 14.7983 27.5319 14.9121 27.5631 15.0609C27.5894 15.1861 27.567 15.3134 27.496 15.4427C27.3276 15.7314 27.0775 16.0004 26.7456 16.2498C26.4199 16.4897 26.0769 16.6474 25.7167 16.7229ZM25.6474 12.2378C25.5189 12.093 25.3604 11.9995 25.1717 11.9573C24.9814 11.9073 24.7688 11.9069 24.5339 11.9561C24.0876 12.0497 23.7438 12.2811 23.5024 12.6505C23.2689 13.0182 23.1754 13.4301 23.2219 13.8863C23.2309 14.007 23.2526 14.1496 23.287 14.314L25.6474 12.2378ZM30.6731 15.672C30.2738 15.7557 29.8923 15.7294 29.5286 15.5931C29.1711 15.4473 28.8565 15.1944 28.5849 14.8345C28.3212 14.4729 28.131 14.0141 28.0145 13.4582C27.8734 12.7848 27.8585 12.1872 27.9698 11.6652C28.0812 11.1433 28.2993 10.7216 28.6243 10.4001C28.9476 10.0708 29.3559 9.85447 29.8492 9.7511C30.2407 9.66906 30.6785 9.67133 31.1625 9.75789L30.8398 7.92513C30.8148 7.76689 30.8456 7.62147 30.9323 7.48888C31.0251 7.34682 31.1498 7.25938 31.3064 7.22657C31.4552 7.19539 31.5967 7.22704 31.7309 7.32152C31.8713 7.40653 31.9557 7.53598 31.9839 7.70988L33.2519 14.5799C33.2769 14.7381 33.2453 14.8796 33.157 15.0044C33.0687 15.1291 32.9462 15.2079 32.7896 15.2407C32.6409 15.2719 32.5026 15.2559 32.375 15.1928C32.2551 15.128 32.1805 15.0251 32.1509 14.8842L32.1066 14.6727C31.9424 14.9033 31.7372 15.1139 31.4911 15.3044C31.2433 15.4871 30.9706 15.6096 30.6731 15.672ZM30.5455 14.5953C30.8118 14.5395 31.0469 14.433 31.251 14.2758C31.4613 14.1091 31.6158 13.9296 31.7144 13.7373C31.8131 13.545 31.8516 13.3775 31.8298 13.2349L31.392 10.9114C31.2313 10.8469 31.034 10.8025 30.8 10.7779C30.5644 10.7456 30.3448 10.7507 30.1412 10.7934C29.6636 10.8935 29.3411 11.149 29.1739 11.5601C29.005 11.9633 28.9919 12.5055 29.1347 13.1867C29.2528 13.7504 29.4337 14.1457 29.6774 14.3726C29.9273 14.59 30.2167 14.6642 30.5455 14.5953Z"/>
</mask>
<path d="M12.0222 19.6662C11.7481 19.7236 11.4644 19.7544 11.1711 19.7587C10.8793 19.7708 10.6793 19.7718 10.5709 19.7618C10.4375 19.7489 10.3162 19.6967 10.2071 19.6051C10.098 19.5136 10.0303 19.4051 10.004 19.2799L8.60855 12.6205C8.5741 12.4561 8.60019 12.3076 8.68684 12.175C8.78132 12.0407 8.91077 11.9564 9.0752 11.9219C9.86602 11.7562 10.6893 11.7063 11.545 11.7722C12.4007 11.8381 13.1894 12.1306 13.9112 12.6496C14.6409 13.1669 15.1246 13.9933 15.3625 15.1286C15.5348 15.9507 15.4991 16.6775 15.2554 17.3089C15.0101 17.9325 14.6061 18.4422 14.0433 18.838C13.4789 19.226 12.8052 19.5021 12.0222 19.6662ZM11.7761 18.4917C12.6922 18.2997 13.3643 17.9382 13.7925 17.4071C14.2285 16.8743 14.3603 16.1969 14.188 15.3747C13.9747 14.3568 13.4836 13.671 12.7147 13.3172C11.9536 12.9617 11.0199 12.8549 9.91349 12.9969L11.0801 18.564C11.3561 18.5551 11.5881 18.5311 11.7761 18.4917ZM19.9475 17.9318C19.3916 18.0483 18.8658 18.0359 18.3703 17.8945C17.881 17.7437 17.4651 17.4753 17.1226 17.0893C16.7786 16.6955 16.5434 16.1971 16.417 15.5942C16.3136 15.1009 16.3248 14.6082 16.4505 14.1159C16.5824 13.6142 16.8193 13.1845 17.1612 12.8268C17.511 12.4674 17.9442 12.2336 18.461 12.1253C18.9386 12.0252 19.3663 12.0377 19.744 12.1629C20.1279 12.2787 20.4339 12.4516 20.6619 12.6817C20.8899 12.9118 21.0261 13.1326 21.0704 13.344C21.0918 13.4458 21.0809 13.5502 21.038 13.6573C20.995 13.7644 20.9222 13.8655 20.8195 13.9606L18.0509 16.4289C18.2114 16.6486 18.4426 16.7963 18.7446 16.872C19.0543 16.9461 19.3815 16.947 19.726 16.8748C20.1801 16.7796 20.5324 16.5301 20.7829 16.1261C20.8819 15.9746 20.998 15.8849 21.1311 15.857C21.2877 15.8241 21.4276 15.848 21.5507 15.9284C21.6816 16.0072 21.7627 16.121 21.7939 16.2698C21.8201 16.3951 21.7978 16.5224 21.7268 16.6517C21.5584 16.9404 21.3083 17.2094 20.9763 17.4588C20.6506 17.6987 20.3077 17.8564 19.9475 17.9318ZM19.8781 13.4467C19.7497 13.302 19.5912 13.2085 19.4025 13.1663C19.2122 13.1163 18.9996 13.1159 18.7647 13.1651C18.3184 13.2586 17.9746 13.49 17.7332 13.8594C17.4996 14.2271 17.4061 14.6391 17.4527 15.0952C17.4616 15.2159 17.4833 15.3585 17.5178 15.5229L19.8781 13.4467ZM25.7167 16.7229C25.1608 16.8394 24.6351 16.8269 24.1395 16.6856C23.6502 16.5347 23.2343 16.2663 22.8919 15.8803C22.5478 15.4865 22.3126 14.9882 22.1862 14.3853C22.0829 13.892 22.094 13.3992 22.2198 12.907C22.3517 12.4053 22.5886 11.9755 22.9305 11.6178C23.2802 11.2584 23.7134 11.0246 24.2302 10.9163C24.7078 10.8162 25.1355 10.8288 25.5132 10.954C25.8971 11.0697 26.2031 11.2426 26.4311 11.4727C26.6592 11.7029 26.7953 11.9236 26.8396 12.135C26.861 12.2368 26.8502 12.3413 26.8072 12.4483C26.7643 12.5554 26.6914 12.6565 26.5888 12.7516L23.8202 15.2199C23.9806 15.4397 24.2118 15.5874 24.5138 15.6631C24.8236 15.7371 25.1507 15.738 25.4952 15.6658C25.9494 15.5707 26.3017 15.3211 26.5521 14.9171C26.6512 14.7656 26.7672 14.6759 26.9003 14.648C27.0569 14.6152 27.1968 14.639 27.3199 14.7195C27.4509 14.7983 27.5319 14.9121 27.5631 15.0609C27.5894 15.1861 27.567 15.3134 27.496 15.4427C27.3276 15.7314 27.0775 16.0004 26.7456 16.2498C26.4199 16.4897 26.0769 16.6474 25.7167 16.7229ZM25.6474 12.2378C25.5189 12.093 25.3604 11.9995 25.1717 11.9573C24.9814 11.9073 24.7688 11.9069 24.5339 11.9561C24.0876 12.0497 23.7438 12.2811 23.5024 12.6505C23.2689 13.0182 23.1754 13.4301 23.2219 13.8863C23.2309 14.007 23.2526 14.1496 23.287 14.314L25.6474 12.2378ZM30.6731 15.672C30.2738 15.7557 29.8923 15.7294 29.5286 15.5931C29.1711 15.4473 28.8565 15.1944 28.5849 14.8345C28.3212 14.4729 28.131 14.0141 28.0145 13.4582C27.8734 12.7848 27.8585 12.1872 27.9698 11.6652C28.0812 11.1433 28.2993 10.7216 28.6243 10.4001C28.9476 10.0708 29.3559 9.85447 29.8492 9.7511C30.2407 9.66906 30.6785 9.67133 31.1625 9.75789L30.8398 7.92513C30.8148 7.76689 30.8456 7.62147 30.9323 7.48888C31.0251 7.34682 31.1498 7.25938 31.3064 7.22657C31.4552 7.19539 31.5967 7.22704 31.7309 7.32152C31.8713 7.40653 31.9557 7.53598 31.9839 7.70988L33.2519 14.5799C33.2769 14.7381 33.2453 14.8796 33.157 15.0044C33.0687 15.1291 32.9462 15.2079 32.7896 15.2407C32.6409 15.2719 32.5026 15.2559 32.375 15.1928C32.2551 15.128 32.1805 15.0251 32.1509 14.8842L32.1066 14.6727C31.9424 14.9033 31.7372 15.1139 31.4911 15.3044C31.2433 15.4871 30.9706 15.6096 30.6731 15.672ZM30.5455 14.5953C30.8118 14.5395 31.0469 14.433 31.251 14.2758C31.4613 14.1091 31.6158 13.9296 31.7144 13.7373C31.8131 13.545 31.8516 13.3775 31.8298 13.2349L31.392 10.9114C31.2313 10.8469 31.034 10.8025 30.8 10.7779C30.5644 10.7456 30.3448 10.7507 30.1412 10.7934C29.6636 10.8935 29.3411 11.149 29.1739 11.5601C29.005 11.9633 28.9919 12.5055 29.1347 13.1867C29.2528 13.7504 29.4337 14.1457 29.6774 14.3726C29.9273 14.59 30.2167 14.6642 30.5455 14.5953Z" fill="#00142C"/>
<path d="M11.1711 19.7587L11.1565 18.7588L11.1431 18.759L11.1296 18.7595L11.1711 19.7587ZM10.5709 19.7618L10.4748 20.7572L10.4791 20.7576L10.5709 19.7618ZM10.2071 19.6051L9.56418 20.3711L9.56418 20.3711L10.2071 19.6051ZM8.68684 12.175L7.86909 11.5994L7.85917 11.6135L7.84974 11.6279L8.68684 12.175ZM11.545 11.7722L11.6218 10.7752L11.6218 10.7752L11.545 11.7722ZM13.9112 12.6496L13.3274 13.4615L13.3328 13.4653L13.9112 12.6496ZM15.2554 17.3089L16.186 17.675L16.1884 17.669L15.2554 17.3089ZM14.0433 18.838L14.6098 19.6621L14.6186 19.656L14.0433 18.838ZM13.7925 17.4071L13.0186 16.7737L13.014 16.7794L13.7925 17.4071ZM12.7147 13.3172L12.2916 14.2232L12.2967 14.2256L12.7147 13.3172ZM9.91349 12.9969L9.78624 12.005L8.71277 12.1427L8.93474 13.202L9.91349 12.9969ZM11.0801 18.564L10.1013 18.769L10.2734 19.5902L11.112 19.5634L11.0801 18.564ZM12.0222 19.6662L11.8171 18.6874C11.6086 18.7311 11.3889 18.7554 11.1565 18.7588L11.1711 19.7587L11.1856 20.7586C11.5399 20.7534 11.8876 20.7161 12.2273 20.6449L12.0222 19.6662ZM11.1711 19.7587L11.1296 18.7595C10.9909 18.7653 10.8809 18.7681 10.797 18.7686C10.7552 18.7688 10.7228 18.7684 10.6984 18.7677C10.6729 18.7669 10.6623 18.766 10.6627 18.7661L10.5709 19.7618L10.4791 20.7576C10.6631 20.7746 10.9263 20.7697 11.2125 20.7578L11.1711 19.7587ZM10.5709 19.7618L10.6671 18.7665C10.7019 18.7698 10.7394 18.779 10.7754 18.7945C10.8109 18.8098 10.8358 18.8273 10.85 18.8392L10.2071 19.6051L9.56418 20.3711C9.81798 20.5841 10.1272 20.7236 10.4748 20.7572L10.5709 19.7618ZM10.2071 19.6051L10.85 18.8392C10.8668 18.8533 10.895 18.8812 10.9228 18.9256C10.9512 18.9712 10.9719 19.0226 10.9828 19.0748L10.004 19.2799L9.02529 19.485C9.1027 19.8544 9.30393 20.1527 9.56418 20.3711L10.2071 19.6051ZM10.004 19.2799L10.9828 19.0748L9.58729 12.4154L8.60855 12.6205L7.62981 12.8256L9.02529 19.485L10.004 19.2799ZM8.60855 12.6205L9.58729 12.4154C9.59318 12.4435 9.59854 12.4943 9.58719 12.5589C9.57563 12.6247 9.5509 12.6808 9.52394 12.722L8.68684 12.175L7.84974 11.6279C7.60852 11.997 7.54462 12.4191 7.62981 12.8256L8.60855 12.6205ZM8.68684 12.175L9.50459 12.7506C9.48331 12.7808 9.44893 12.8175 9.40068 12.8489C9.35279 12.8801 9.30879 12.8947 9.2803 12.9007L9.0752 11.9219L8.8701 10.9432C8.46422 11.0283 8.11311 11.2527 7.86909 11.5994L8.68684 12.175ZM9.0752 11.9219L9.2803 12.9007C9.97292 12.7556 10.701 12.7102 11.4682 12.7693L11.545 11.7722L11.6218 10.7752C10.6776 10.7025 9.75913 10.7569 8.8701 10.9432L9.0752 11.9219ZM11.545 11.7722L11.4682 12.7693C12.1344 12.8206 12.7489 13.0455 13.3274 13.4615L13.9112 12.6496L14.495 11.8377C13.63 11.2157 12.667 10.8557 11.6218 10.7752L11.545 11.7722ZM13.9112 12.6496L13.3328 13.4653C13.8015 13.7976 14.1818 14.3695 14.3838 15.3337L15.3625 15.1286L16.3413 14.9235C16.0675 13.617 15.4802 12.5362 14.4897 11.8338L13.9112 12.6496ZM15.3625 15.1286L14.3838 15.3337C14.5261 16.0126 14.4816 16.5365 14.3225 16.9489L15.2554 17.3089L16.1884 17.669C16.5166 16.8185 16.5436 15.8889 16.3413 14.9235L15.3625 15.1286ZM15.2554 17.3089L14.3249 16.9428C14.1532 17.3791 13.8752 17.7337 13.468 18.0201L14.0433 18.838L14.6186 19.656C15.3369 19.1507 15.867 18.4858 16.186 17.675L15.2554 17.3089ZM14.0433 18.838L13.4768 18.014C13.0381 18.3155 12.492 18.546 11.8171 18.6874L12.0222 19.6662L12.2273 20.6449C13.1183 20.4582 13.9196 20.1366 14.6098 19.6621L14.0433 18.838ZM11.7761 18.4917L11.9811 19.4704C13.0397 19.2486 13.9521 18.8023 14.571 18.0347L13.7925 17.4071L13.014 16.7794C12.7764 17.074 12.3446 17.3508 11.571 17.5129L11.7761 18.4917ZM13.7925 17.4071L14.5663 18.0404C15.2361 17.222 15.386 16.2159 15.1668 15.1696L14.188 15.3747L13.2093 15.5798C13.3346 16.1778 13.2208 16.5266 13.0186 16.7737L13.7925 17.4071ZM14.188 15.3747L15.1668 15.1696C14.9051 13.921 14.2558 12.9255 13.1327 12.4087L12.7147 13.3172L12.2967 14.2256C12.7115 14.4164 13.0444 14.7927 13.2093 15.5798L14.188 15.3747ZM12.7147 13.3172L13.1379 12.4111C12.1574 11.9532 11.0204 11.8467 9.78624 12.005L9.91349 12.9969L10.0407 13.9887C11.0194 13.8632 11.7498 13.9702 12.2916 14.2232L12.7147 13.3172ZM9.91349 12.9969L8.93474 13.202L10.1013 18.769L11.0801 18.564L12.0588 18.3589L10.8922 12.7918L9.91349 12.9969ZM11.0801 18.564L11.112 19.5634C11.4233 19.5535 11.7174 19.5257 11.9811 19.4704L11.7761 18.4917L11.571 17.5129C11.4588 17.5364 11.289 17.5568 11.0482 17.5645L11.0801 18.564ZM18.3703 17.8945L18.0757 18.8501L18.0858 18.8532L18.096 18.8561L18.3703 17.8945ZM17.1226 17.0893L16.3696 17.7473L16.3746 17.753L17.1226 17.0893ZM16.4505 14.1159L15.4834 13.8617L15.4816 13.8685L16.4505 14.1159ZM17.1612 12.8268L16.4446 12.1293L16.4383 12.1358L17.1612 12.8268ZM19.744 12.1629L19.4294 13.1121L19.4423 13.1164L19.4554 13.1204L19.744 12.1629ZM20.6619 12.6817L19.9516 13.3856L19.9516 13.3856L20.6619 12.6817ZM21.038 13.6573L20.1099 13.285L20.1099 13.285L21.038 13.6573ZM20.8195 13.9606L21.485 14.707L21.492 14.7007L21.499 14.6943L20.8195 13.9606ZM18.0509 16.4289L17.3855 15.6824L16.7084 16.2861L17.2433 17.0186L18.0509 16.4289ZM18.7446 16.872L18.5014 17.8421L18.5121 17.8446L18.7446 16.872ZM20.7829 16.1261L19.9458 15.5791L19.9393 15.589L19.933 15.5991L20.7829 16.1261ZM21.5507 15.9284L21.0036 16.7655L21.0191 16.7757L21.035 16.7852L21.5507 15.9284ZM21.7268 16.6517L22.5906 17.1555L22.5971 17.1443L22.6034 17.1329L21.7268 16.6517ZM20.9763 17.4588L21.5694 18.264L21.577 18.2582L20.9763 17.4588ZM19.8781 13.4467L20.5386 14.1976L21.2927 13.5343L20.6262 12.783L19.8781 13.4467ZM19.4025 13.1663L19.1483 14.1334L19.1662 14.1381L19.1842 14.1422L19.4025 13.1663ZM17.7332 13.8594L16.896 13.3123L16.8891 13.3233L17.7332 13.8594ZM17.4527 15.0952L18.4499 15.0213L18.4489 15.0075L18.4475 14.9937L17.4527 15.0952ZM17.5178 15.5229L16.5391 15.728L16.8907 17.4063L18.1783 16.2738L17.5178 15.5229ZM19.9475 17.9318L19.7424 16.9531C19.3288 17.0398 18.9687 17.0253 18.6447 16.9329L18.3703 17.8945L18.096 18.8561C18.763 19.0465 19.4544 19.0569 20.1526 18.9106L19.9475 17.9318ZM18.3703 17.8945L18.6649 16.9389C18.352 16.8424 18.0925 16.6757 17.8707 16.4256L17.1226 17.0893L16.3746 17.753C16.8376 18.2748 17.41 18.6449 18.0757 18.8501L18.3703 17.8945ZM17.1226 17.0893L17.8757 16.4313C17.663 16.1879 17.4932 15.8542 17.3958 15.3891L16.417 15.5942L15.4383 15.7993C15.5935 16.5401 15.8941 17.2031 16.3696 17.7473L17.1226 17.0893ZM16.417 15.5942L17.3958 15.3891C17.324 15.0467 17.3312 14.7087 17.4194 14.3634L16.4505 14.1159L15.4816 13.8685C15.3184 14.5076 15.3033 15.1552 15.4383 15.7993L16.417 15.5942ZM16.4505 14.1159L17.4177 14.3702C17.5086 14.0241 17.6651 13.7469 17.8842 13.5177L17.1612 12.8268L16.4383 12.1358C15.9736 12.6221 15.6562 13.2043 15.4834 13.8617L16.4505 14.1159ZM17.1612 12.8268L17.8779 13.5242C18.0813 13.3151 18.3331 13.1738 18.6661 13.104L18.461 12.1253L18.2559 11.1465C17.5553 11.2933 16.9406 11.6196 16.4446 12.1293L17.1612 12.8268ZM18.461 12.1253L18.6661 13.104C19.0098 13.032 19.2533 13.0538 19.4294 13.1121L19.744 12.1629L20.0586 11.2137C19.4792 11.0217 18.8674 11.0184 18.2559 11.1465L18.461 12.1253ZM19.744 12.1629L19.4554 13.1204C19.7172 13.1993 19.8655 13.2987 19.9516 13.3856L20.6619 12.6817L21.3722 11.9778C21.0022 11.6044 20.5386 11.358 20.0326 11.2055L19.744 12.1629ZM20.6619 12.6817L19.9516 13.3856C20.0247 13.4593 20.0643 13.513 20.084 13.5448C20.1032 13.576 20.0975 13.5768 20.0917 13.5491L21.0704 13.344L22.0492 13.1389C21.9502 12.6666 21.6725 12.2808 21.3722 11.9778L20.6619 12.6817ZM21.0704 13.344L20.0917 13.5491C20.0809 13.4978 20.0785 13.4454 20.0836 13.3957C20.0887 13.3469 20.1001 13.3093 20.1099 13.285L21.038 13.6573L21.9661 14.0296C22.0742 13.7601 22.1154 13.4548 22.0492 13.1389L21.0704 13.344ZM21.038 13.6573L20.1099 13.285C20.1325 13.2286 20.1569 13.2113 20.1401 13.2268L20.8195 13.9606L21.499 14.6943C21.6876 14.5197 21.8576 14.3002 21.9661 14.0296L21.038 13.6573ZM20.8195 13.9606L20.1541 13.2141L17.3855 15.6824L18.0509 16.4289L18.7164 17.1753L21.485 14.707L20.8195 13.9606ZM18.0509 16.4289L17.2433 17.0186C17.5614 17.4541 18.0072 17.7181 18.5014 17.842L18.7446 16.872L18.9877 15.902C18.878 15.8745 18.8615 15.8431 18.8585 15.8391L18.0509 16.4289ZM18.7446 16.872L18.5121 17.8446C18.98 17.9565 19.4574 17.9528 19.9311 17.8535L19.726 16.8748L19.5209 15.896C19.3055 15.9412 19.1287 15.9357 18.977 15.8994L18.7446 16.872ZM19.726 16.8748L19.9311 17.8535C20.6602 17.7007 21.2422 17.2831 21.6328 16.6531L20.7829 16.1261L19.933 15.5991C19.8227 15.7771 19.7001 15.8585 19.5209 15.896L19.726 16.8748ZM20.7829 16.1261L21.62 16.6731C21.6222 16.6698 21.6039 16.6992 21.5558 16.7364C21.5038 16.7765 21.429 16.8163 21.3362 16.8357L21.1311 15.857L20.926 14.8782C20.4563 14.9767 20.1403 15.2815 19.9458 15.5791L20.7829 16.1261ZM21.1311 15.857L21.3362 16.8357C21.3073 16.8418 21.2541 16.8477 21.1856 16.836C21.1153 16.824 21.0526 16.7975 21.0036 16.7655L21.5507 15.9284L22.0977 15.0913C21.732 14.8523 21.3171 14.7963 20.926 14.8782L21.1311 15.857ZM21.5507 15.9284L21.035 16.7852C20.9941 16.7606 20.9415 16.718 20.8952 16.6531C20.8489 16.5881 20.8253 16.5236 20.8151 16.4749L21.7939 16.2698L22.7726 16.0647C22.6841 15.6421 22.4341 15.293 22.0664 15.0717L21.5507 15.9284ZM21.7939 16.2698L20.8151 16.4749C20.8019 16.4118 20.8013 16.3466 20.8119 16.2862C20.8221 16.2278 20.8403 16.1885 20.8502 16.1705L21.7268 16.6517L22.6034 17.1329C22.7707 16.8282 22.8552 16.4588 22.7726 16.0647L21.7939 16.2698ZM21.7268 16.6517L20.863 16.1479C20.7759 16.2972 20.626 16.4712 20.3757 16.6593L20.9763 17.4588L21.577 18.2582C21.9905 17.9476 22.3409 17.5835 22.5906 17.1555L21.7268 16.6517ZM20.9763 17.4588L20.3833 16.6536C20.1614 16.817 19.9489 16.9098 19.7424 16.9531L19.9475 17.9318L20.1526 18.9106C20.6664 18.8029 21.1398 18.5803 21.5694 18.2639L20.9763 17.4588ZM19.8781 13.4467L20.6262 12.783C20.3585 12.4813 20.0147 12.2785 19.6208 12.1904L19.4025 13.1663L19.1842 14.1422C19.1818 14.1416 19.1702 14.1384 19.1551 14.1295C19.1399 14.1206 19.1316 14.112 19.1301 14.1104L19.8781 13.4467ZM19.4025 13.1663L19.6568 12.1992C19.2869 12.1019 18.9136 12.1122 18.5596 12.1863L18.7647 13.1651L18.9698 14.1438C19.0856 14.1196 19.1375 14.1306 19.1483 14.1334L19.4025 13.1663ZM18.7647 13.1651L18.5596 12.1863C17.8634 12.3322 17.2879 12.7128 16.8961 13.3124L17.7332 13.8594L18.5703 14.4065C18.6612 14.2673 18.7734 14.185 18.9698 14.1438L18.7647 13.1651ZM17.7332 13.8594L16.8891 13.3233C16.5285 13.891 16.3898 14.5298 16.4578 15.1967L17.4527 15.0952L18.4475 14.9937C18.4225 14.7484 18.4708 14.5632 18.5773 14.3955L17.7332 13.8594ZM17.4527 15.0952L16.4554 15.1692C16.4686 15.3472 16.4987 15.5356 16.5391 15.728L17.5178 15.5229L18.4965 15.3178C18.468 15.1814 18.4547 15.0847 18.4499 15.0213L17.4527 15.0952ZM17.5178 15.5229L18.1783 16.2738L20.5386 14.1976L19.8781 13.4467L19.2177 12.6959L16.8573 14.7721L17.5178 15.5229ZM24.1395 16.6856L23.845 17.6412L23.855 17.6443L23.8652 17.6472L24.1395 16.6856ZM22.8919 15.8803L22.1388 16.5383L22.1438 16.544L22.8919 15.8803ZM22.2198 12.907L21.2526 12.6527L21.2509 12.6595L22.2198 12.907ZM22.9305 11.6178L22.2138 10.9203L22.2075 10.9269L22.9305 11.6178ZM25.5132 10.954L25.1986 11.9032L25.2115 11.9075L25.2246 11.9114L25.5132 10.954ZM26.4311 11.4727L25.7208 12.1766L25.7208 12.1766L26.4311 11.4727ZM26.8072 12.4483L25.8791 12.0761L25.8791 12.0761L26.8072 12.4483ZM26.5888 12.7516L27.2542 13.498L27.2613 13.4918L27.2682 13.4853L26.5888 12.7516ZM23.8202 15.2199L23.1547 14.4735L22.4776 15.0771L23.0126 15.8097L23.8202 15.2199ZM24.5138 15.6631L24.2706 16.6331L24.2813 16.6357L24.5138 15.6631ZM26.5521 14.9171L25.715 14.3701L25.7085 14.3801L25.7023 14.3902L26.5521 14.9171ZM27.3199 14.7195L26.7729 15.5566L26.7884 15.5667L26.8042 15.5762L27.3199 14.7195ZM27.496 15.4427L28.3598 15.9466L28.3663 15.9354L28.3726 15.924L27.496 15.4427ZM26.7456 16.2498L27.3386 17.055L27.3463 17.0493L26.7456 16.2498ZM25.6474 12.2378L26.3078 12.9886L27.0619 12.3253L26.3954 11.5741L25.6474 12.2378ZM25.1717 11.9573L24.9175 12.9245L24.9354 12.9292L24.9534 12.9332L25.1717 11.9573ZM23.5024 12.6505L22.6652 12.1034L22.6583 12.1143L23.5024 12.6505ZM23.2219 13.8863L24.2192 13.8123L24.2181 13.7985L24.2167 13.7847L23.2219 13.8863ZM23.287 14.314L22.3083 14.5191L22.66 16.1974L23.9475 15.0648L23.287 14.314ZM25.7167 16.7229L25.5116 15.7441C25.098 15.8308 24.7379 15.8164 24.4139 15.7239L24.1395 16.6856L23.8652 17.6472C24.5323 17.8375 25.2236 17.8479 25.9218 17.7016L25.7167 16.7229ZM24.1395 16.6856L24.4341 15.7299C24.1212 15.6335 23.8618 15.4667 23.6399 15.2167L22.8919 15.8803L22.1438 16.544C22.6069 17.0659 23.1792 17.4359 23.845 17.6412L24.1395 16.6856ZM22.8919 15.8803L23.6449 15.2224C23.4322 14.9789 23.2624 14.6453 23.165 14.1802L22.1862 14.3853L21.2075 14.5904C21.3627 15.3311 21.6634 15.9941 22.1388 16.5383L22.8919 15.8803ZM22.1862 14.3853L23.165 14.1802C23.0932 13.8378 23.1005 13.4998 23.1887 13.1544L22.2198 12.907L21.2509 12.6595C21.0876 13.2987 21.0725 13.9462 21.2075 14.5904L22.1862 14.3853ZM22.2198 12.907L23.1869 13.1612C23.2779 12.8152 23.4343 12.538 23.6534 12.3087L22.9305 11.6178L22.2075 10.9269C21.7428 11.4131 21.4254 11.9953 21.2526 12.6527L22.2198 12.907ZM22.9305 11.6178L23.6471 12.3152C23.8505 12.1062 24.1024 11.9648 24.4353 11.8951L24.2302 10.9163L24.0251 9.93757C23.3245 10.0844 22.7098 10.4107 22.2138 10.9204L22.9305 11.6178ZM24.2302 10.9163L24.4353 11.8951C24.779 11.823 25.0226 11.8448 25.1986 11.9032L25.5132 10.954L25.8278 10.0048C25.2484 9.81271 24.6366 9.80943 24.0251 9.93757L24.2302 10.9163ZM25.5132 10.954L25.2246 11.9114C25.4864 11.9903 25.6347 12.0898 25.7208 12.1766L26.4311 11.4727L27.1414 10.7688C26.7714 10.3955 26.3078 10.1491 25.8018 9.99653L25.5132 10.954ZM26.4311 11.4727L25.7208 12.1766C25.7939 12.2504 25.8335 12.304 25.8532 12.3359C25.8724 12.367 25.8667 12.3678 25.8609 12.3401L26.8396 12.135L27.8184 11.9299C27.7194 11.4577 27.4417 11.0719 27.1414 10.7688L26.4311 11.4727ZM26.8396 12.135L25.8609 12.3401C25.8501 12.2888 25.8477 12.2364 25.8528 12.1867C25.8579 12.1379 25.8694 12.1003 25.8791 12.0761L26.8072 12.4483L27.7353 12.8206C27.8434 12.5511 27.8846 12.2458 27.8184 11.9299L26.8396 12.135ZM26.8072 12.4483L25.8791 12.0761C25.9017 12.0196 25.9261 12.0023 25.9093 12.0179L26.5888 12.7516L27.2682 13.4853C27.4568 13.3107 27.6268 13.0912 27.7353 12.8206L26.8072 12.4483ZM26.5888 12.7516L25.9233 12.0052L23.1547 14.4735L23.8202 15.2199L24.4856 15.9663L27.2542 13.498L26.5888 12.7516ZM23.8202 15.2199L23.0126 15.8097C23.3306 16.2451 23.7764 16.5092 24.2707 16.6331L24.5138 15.6631L24.7569 14.6931C24.6473 14.6656 24.6307 14.6342 24.6277 14.6301L23.8202 15.2199ZM24.5138 15.6631L24.2813 16.6357C24.7492 16.7475 25.2266 16.7438 25.7003 16.6446L25.4952 15.6658L25.2901 14.6871C25.0748 14.7322 24.8979 14.7267 24.7463 14.6905L24.5138 15.6631ZM25.4952 15.6658L25.7003 16.6446C26.4294 16.4918 27.0114 16.0741 27.402 15.4441L26.5521 14.9171L25.7023 14.3902C25.5919 14.5681 25.4693 14.6495 25.2901 14.6871L25.4952 15.6658ZM26.5521 14.9171L27.3892 15.4642C27.3915 15.4608 27.3731 15.4902 27.325 15.5274C27.273 15.5676 27.1982 15.6073 27.1054 15.6268L26.9003 14.648L26.6952 13.6693C26.2255 13.7677 25.9095 14.0725 25.715 14.3701L26.5521 14.9171ZM26.9003 14.648L27.1054 15.6268C27.0765 15.6328 27.0233 15.6387 26.9548 15.6271C26.8845 15.6151 26.8218 15.5886 26.7729 15.5566L27.3199 14.7195L27.867 13.8824C27.5012 13.6434 27.0863 13.5873 26.6952 13.6693L26.9003 14.648ZM27.3199 14.7195L26.8042 15.5762C26.7633 15.5516 26.7107 15.5091 26.6644 15.4441C26.6181 15.3791 26.5946 15.3146 26.5844 15.266L27.5631 15.0609L28.5418 14.8558C28.4533 14.4331 28.2033 14.084 27.8356 13.8627L27.3199 14.7195ZM27.5631 15.0609L26.5844 15.266C26.5711 15.2028 26.5705 15.1376 26.5811 15.0772C26.5914 15.0188 26.6095 14.9796 26.6194 14.9615L27.496 15.4427L28.3726 15.924C28.5399 15.6192 28.6244 15.2498 28.5418 14.8558L27.5631 15.0609ZM27.496 15.4427L26.6322 14.9389C26.5451 15.0882 26.3953 15.2622 26.1449 15.4503L26.7456 16.2498L27.3463 17.0493C27.7597 16.7387 28.1102 16.3746 28.3598 15.9466L27.496 15.4427ZM26.7456 16.2498L26.1525 15.4446C25.9306 15.6081 25.7181 15.7009 25.5116 15.7441L25.7167 16.7229L25.9218 17.7016C26.4357 17.5939 26.9091 17.3713 27.3386 17.055L26.7456 16.2498ZM25.6474 12.2378L26.3954 11.5741C26.1277 11.2724 25.7839 11.0696 25.39 10.9815L25.1717 11.9573L24.9534 12.9332C24.951 12.9327 24.9394 12.9295 24.9243 12.9205C24.9091 12.9116 24.9008 12.9031 24.8993 12.9014L25.6474 12.2378ZM25.1717 11.9573L25.426 10.9902C25.0561 10.893 24.6828 10.9032 24.3288 10.9774L24.5339 11.9561L24.739 12.9349C24.8549 12.9106 24.9067 12.9217 24.9175 12.9245L25.1717 11.9573ZM24.5339 11.9561L24.3288 10.9774C23.6327 11.1233 23.0571 11.5039 22.6653 12.1034L23.5024 12.6505L24.3395 13.1975C24.4305 13.0583 24.5426 12.976 24.739 12.9349L24.5339 11.9561ZM23.5024 12.6505L22.6583 12.1143C22.2977 12.6821 22.159 13.3208 22.2271 13.9878L23.2219 13.8863L24.2167 13.7847C24.1917 13.5394 24.24 13.3543 24.3465 13.1866L23.5024 12.6505ZM23.2219 13.8863L22.2246 13.9602C22.2378 14.1382 22.2679 14.3266 22.3083 14.5191L23.287 14.314L24.2658 14.1089C24.2372 13.9725 24.2239 13.8758 24.2192 13.8123L23.2219 13.8863ZM23.287 14.314L23.9475 15.0648L26.3078 12.9886L25.6474 12.2378L24.9869 11.4869L22.6265 13.5631L23.287 14.314ZM29.5286 15.5931L29.151 16.519L29.1642 16.5244L29.1776 16.5295L29.5286 15.5931ZM28.5849 14.8345L27.777 15.4238L27.7818 15.4303L27.7867 15.4368L28.5849 14.8345ZM27.9698 11.6652L26.9918 11.4567L26.9918 11.4567L27.9698 11.6652ZM28.6243 10.4001L29.3276 11.111L29.3327 11.1059L29.3378 11.1007L28.6243 10.4001ZM31.1625 9.75789L30.9865 10.7423L32.3956 10.9943L32.1474 9.58446L31.1625 9.75789ZM30.8398 7.92513L29.852 8.08109L29.8534 8.08984L29.8549 8.09856L30.8398 7.92513ZM31.7309 7.32152L31.1553 8.13927L31.1835 8.15912L31.213 8.17698L31.7309 7.32152ZM31.9839 7.70988L30.9969 7.87032L30.9986 7.88087L31.0006 7.89138L31.9839 7.70988ZM33.2519 14.5799L34.2397 14.4239L34.2377 14.4111L34.2353 14.3984L33.2519 14.5799ZM33.157 15.0044L33.9732 15.582L33.9732 15.582L33.157 15.0044ZM32.375 15.1928L31.8993 16.0724L31.9153 16.081L31.9316 16.0891L32.375 15.1928ZM32.1066 14.6727L33.0854 14.4676L32.6169 12.2322L31.2921 14.0927L32.1066 14.6727ZM31.4911 15.3044L32.0845 16.1093L32.0939 16.1023L32.1032 16.0952L31.4911 15.3044ZM31.251 14.2758L31.8613 15.0681L31.8722 15.0595L31.251 14.2758ZM31.7144 13.7373L30.8247 13.2809L30.8247 13.2809L31.7144 13.7373ZM31.8298 13.2349L32.8185 13.0845L32.8158 13.0671L32.8125 13.0498L31.8298 13.2349ZM31.392 10.9114L32.3747 10.7262L32.2731 10.1873L31.7642 9.98322L31.392 10.9114ZM30.8 10.7779L30.664 11.7686L30.6799 11.7708L30.6958 11.7725L30.8 10.7779ZM29.1739 11.5601L30.0963 11.9464L30.1001 11.937L29.1739 11.5601ZM29.6774 14.3726L28.9961 15.1046L29.0084 15.116L29.0211 15.1271L29.6774 14.3726ZM30.6731 15.672L30.468 14.6933C30.2444 14.7401 30.0564 14.723 29.8795 14.6567L29.5286 15.5931L29.1776 16.5295C29.7281 16.7358 30.3031 16.7713 30.8782 16.6507L30.6731 15.672ZM29.5286 15.5931L29.9062 14.6671C29.7417 14.6 29.5647 14.4727 29.3832 14.2321L28.5849 14.8345L27.7867 15.4368C28.1483 15.9161 28.6004 16.2945 29.151 16.519L29.5286 15.5931ZM28.5849 14.8345L29.3928 14.2451C29.2319 14.0245 29.0882 13.7063 28.9933 13.2531L28.0145 13.4582L27.0358 13.6633C27.1738 14.3219 27.4104 14.9213 27.777 15.4238L28.5849 14.8345ZM28.0145 13.4582L28.9933 13.2531C28.8728 12.6783 28.8727 12.2261 28.9479 11.8738L27.9698 11.6652L26.9918 11.4567C26.8443 12.1483 26.874 12.8913 27.0358 13.6633L28.0145 13.4582ZM27.9698 11.6652L28.9479 11.8738C29.0255 11.5099 29.1631 11.2737 29.3276 11.111L28.6243 10.4001L27.921 9.68922C27.4355 10.1695 27.1369 10.7767 26.9918 11.4567L27.9698 11.6652ZM28.6243 10.4001L29.3378 11.1007C29.5101 10.9252 29.7357 10.7966 30.0543 10.7298L29.8492 9.7511L29.6441 8.77236C28.9762 8.91233 28.3851 9.21639 27.9107 9.69953L28.6243 10.4001ZM29.8492 9.7511L30.0543 10.7298C30.2951 10.6794 30.6006 10.6733 30.9865 10.7423L31.1625 9.75789L31.3386 8.77351C30.7564 8.66939 30.1863 8.65875 29.6441 8.77236L29.8492 9.7511ZM31.1625 9.75789L32.1474 9.58446L31.8246 7.75169L30.8398 7.92513L29.8549 8.09856L30.1777 9.93133L31.1625 9.75789ZM30.8398 7.92513L31.8275 7.76916C31.8326 7.8013 31.8342 7.84898 31.8224 7.9048C31.8105 7.96081 31.7892 8.00556 31.7694 8.03593L30.9323 7.48888L30.0952 6.94183C29.8712 7.28459 29.7888 7.68103 29.852 8.08109L30.8398 7.92513ZM30.9323 7.48888L31.7694 8.03593C31.7541 8.05926 31.7225 8.09837 31.6695 8.13557C31.6154 8.17349 31.559 8.19537 31.5115 8.20531L31.3064 7.22657L31.1013 6.24783C30.6682 6.33859 30.3233 6.5927 30.0952 6.94183L30.9323 7.48888ZM31.3064 7.22657L31.5115 8.20531C31.4531 8.21755 31.3811 8.21965 31.3058 8.20281C31.2324 8.18638 31.1816 8.15777 31.1553 8.13927L31.7309 7.32152L32.3065 6.50377C31.9658 6.26399 31.5447 6.15492 31.1013 6.24783L31.3064 7.22657ZM31.7309 7.32152L31.213 8.17698C31.1629 8.14662 31.1066 8.09725 31.0616 8.02826C31.0178 7.96101 31.002 7.90161 30.9969 7.87032L31.9839 7.70988L32.971 7.54944C32.8996 7.11041 32.66 6.71502 32.2488 6.46607L31.7309 7.32152ZM31.9839 7.70988L31.0006 7.89138L32.2685 14.7614L33.2519 14.5799L34.2353 14.3984L32.9673 7.52838L31.9839 7.70988ZM33.2519 14.5799L32.2642 14.7358C32.2591 14.7036 32.2566 14.6508 32.271 14.5864C32.2857 14.521 32.3126 14.4664 32.3407 14.4267L33.157 15.0044L33.9732 15.582C34.22 15.2333 34.3032 14.8259 34.2397 14.4239L33.2519 14.5799ZM33.157 15.0044L32.3407 14.4267C32.3668 14.3898 32.406 14.3494 32.4578 14.3161C32.5089 14.2832 32.5552 14.2681 32.5845 14.262L32.7896 15.2407L32.9947 16.2195C33.3856 16.1376 33.7318 15.9232 33.9732 15.582L33.157 15.0044ZM32.7896 15.2407L32.5845 14.262C32.6057 14.2576 32.6423 14.2533 32.6893 14.2587C32.7372 14.2643 32.7816 14.2782 32.8184 14.2964L32.375 15.1928L31.9316 16.0891C32.274 16.2585 32.6424 16.2933 32.9947 16.2195L32.7896 15.2407ZM32.375 15.1928L32.8506 14.3131C32.9127 14.3467 32.9815 14.4013 33.0383 14.4795C33.0941 14.5564 33.1193 14.6298 33.1297 14.6791L32.1509 14.8842L31.1722 15.0892C31.2581 15.4993 31.5044 15.8588 31.8993 16.0724L32.375 15.1928ZM32.1509 14.8842L33.1297 14.6791L33.0854 14.4676L32.1066 14.6727L31.1279 14.8778L31.1722 15.0892L32.1509 14.8842ZM32.1066 14.6727L31.2921 14.0927C31.19 14.236 31.0553 14.3771 30.879 14.5136L31.4911 15.3044L32.1032 16.0952C32.4191 15.8506 32.6948 15.5707 32.9212 15.2528L32.1066 14.6727ZM31.4911 15.3044L30.8976 14.4995C30.7638 14.5982 30.6233 14.6607 30.468 14.6933L30.6731 15.672L30.8782 16.6507C31.318 16.5586 31.7228 16.376 32.0845 16.1093L31.4911 15.3044ZM30.5455 14.5953L30.7506 15.574C31.1558 15.4891 31.5312 15.3222 31.8612 15.068L31.251 14.2758L30.6408 13.4835C30.5626 13.5438 30.4677 13.5899 30.3404 13.6165L30.5455 14.5953ZM31.251 14.2758L31.8722 15.0595C32.168 14.825 32.4266 14.5398 32.6042 14.1937L31.7144 13.7373L30.8247 13.2809C30.8049 13.3194 30.7546 13.3933 30.6299 13.4921L31.251 14.2758ZM31.7144 13.7373L32.6042 14.1937C32.7535 13.9027 32.884 13.5149 32.8185 13.0845L31.8298 13.2349L30.8412 13.3854C30.8299 13.3108 30.839 13.2596 30.8427 13.2435C30.846 13.229 30.8454 13.2404 30.8247 13.2809L31.7144 13.7373ZM31.8298 13.2349L32.8125 13.0498L32.3747 10.7262L31.392 10.9114L30.4093 11.0965L30.8471 13.4201L31.8298 13.2349ZM31.392 10.9114L31.7642 9.98322C31.4933 9.87454 31.1997 9.81433 30.9043 9.78337L30.8 10.7779L30.6958 11.7725C30.8684 11.7906 30.9694 11.8193 31.0197 11.8395L31.392 10.9114ZM30.8 10.7779L30.9361 9.78722C30.6029 9.74148 30.2667 9.74536 29.9361 9.81464L30.1412 10.7934L30.3463 11.7721C30.4228 11.7561 30.5258 11.7497 30.664 11.7686L30.8 10.7779ZM30.1412 10.7934L29.9361 9.81464C29.1712 9.97493 28.5542 10.4296 28.2476 11.1832L29.1739 11.5601L30.1001 11.937C30.128 11.8685 30.156 11.812 30.3463 11.7721L30.1412 10.7934ZM29.1739 11.5601L28.2515 11.1737C27.9705 11.8447 27.9942 12.6202 28.1559 13.3918L29.1347 13.1867L30.1134 12.9816C29.9896 12.3908 30.0395 12.0819 30.0962 11.9464L29.1739 11.5601ZM29.1347 13.1867L28.1559 13.3918C28.2889 14.0264 28.5262 14.6672 28.9961 15.1046L29.6774 14.3726L30.3587 13.6406C30.3412 13.6243 30.2167 13.4745 30.1134 12.9816L29.1347 13.1867ZM29.6774 14.3726L29.0211 15.1271C29.5112 15.5534 30.1206 15.706 30.7506 15.574L30.5455 14.5953L30.3404 13.6165C30.3225 13.6203 30.3145 13.6201 30.3149 13.6202C30.315 13.6202 30.3167 13.6202 30.3197 13.6206C30.3226 13.6209 30.3263 13.6216 30.3303 13.6226C30.3344 13.6237 30.3382 13.6249 30.3415 13.6262C30.3447 13.6275 30.3469 13.6286 30.3479 13.6291C30.3501 13.6303 30.3452 13.628 30.3337 13.6181L29.6774 14.3726Z" fill="#6DBFC2" mask="url(#path-1-outside-1_2951_2494)"/>
<mask id="path-3-outside-2_2951_2494" maskUnits="userSpaceOnUse" x="0.000396285" y="1.00001" width="29.0048" height="12.0115" fill="black">
<rect fill="white" x="0.000396285" y="1.00001" width="29.0048" height="12.0115"/>
<path d="M5.13239 11.0935C4.41239 11.0938 3.77232 10.906 3.21217 10.5302C2.66002 10.1545 2.23182 9.66262 1.92758 9.05474C1.63134 8.43886 1.48308 7.78692 1.48281 7.09892C1.48254 6.41892 1.64228 5.75485 1.96202 5.10673C2.28176 4.4506 2.72955 3.91842 3.30539 3.5102C3.88922 3.09396 4.55714 2.8857 5.30914 2.8854C6.01314 2.88512 6.6052 3.03689 7.08532 3.3407C7.57344 3.6365 7.93757 3.97636 8.17772 4.36026C8.41788 4.74417 8.538 5.04812 8.53809 5.27212C8.53815 5.44012 8.48621 5.57614 8.38225 5.68018C8.27829 5.77622 8.1383 5.82428 7.9623 5.82435C7.6743 5.82446 7.48225 5.69654 7.38615 5.44058C7.242 5.05664 7.00187 4.73673 6.66577 4.48086C6.32967 4.217 5.87761 4.08518 5.30962 4.0854C4.71762 4.08564 4.22168 4.26183 3.82182 4.61399C3.42996 4.95815 3.14212 5.36626 2.95831 5.83833C2.7745 6.31041 2.68266 6.73044 2.68281 7.09844C2.68298 7.53044 2.77515 7.96241 2.95932 8.39433C3.14349 8.82626 3.41964 9.18615 3.78775 9.474C4.16386 9.75386 4.61192 9.89368 5.13192 9.89347C5.64392 9.89327 6.09187 9.76509 6.47576 9.50894C6.85966 9.24479 7.14351 8.87667 7.32733 8.4046L7.14733 8.40467C6.87533 8.42078 6.57535 8.4689 6.24738 8.54903C6.1114 8.58908 6.00341 8.60913 5.92341 8.60916C5.76341 8.60922 5.62339 8.55728 5.50335 8.45332C5.3913 8.34137 5.33524 8.19339 5.33517 8.00939C5.33506 7.73739 5.47898 7.54133 5.76694 7.42122C5.90291 7.36517 6.1229 7.31708 6.42688 7.27696C6.73886 7.23684 7.05486 7.21671 7.37486 7.21658C7.83086 7.2164 8.27488 7.28423 8.70694 7.42006C8.96297 7.49995 9.09104 7.6879 9.09116 7.9839C9.09121 8.1199 9.05126 8.23992 8.9713 8.34395C8.89134 8.43998 8.79137 8.50802 8.67138 8.54807C8.60739 8.56409 8.55939 8.57211 8.52739 8.57213C8.30369 9.31622 7.89193 9.92438 7.29212 10.3966C6.7003 10.8609 5.98039 11.0931 5.13239 11.0935ZM12.405 11.0786C11.949 11.0788 11.529 10.9549 11.1449 10.7071C10.7688 10.4592 10.4727 10.1234 10.2565 9.69944C10.0403 9.26753 9.93214 8.79957 9.93194 8.29557C9.93171 7.72757 10.0595 7.19952 10.3153 6.71142C10.5711 6.21532 10.915 5.82318 11.3468 5.53501C11.7787 5.23884 12.2427 5.09065 12.7387 5.09046C13.1947 5.09028 13.6107 5.21811 13.9868 5.47396C14.3709 5.72981 14.6711 6.06969 14.8872 6.49361C15.1114 6.91752 15.2236 7.37347 15.2238 7.86147C15.224 8.43747 15.0962 8.97352 14.8404 9.46963C14.5846 9.95773 14.2368 10.3499 13.7969 10.646C13.365 10.9342 12.901 11.0784 12.405 11.0786ZM12.4046 9.99859C12.6846 9.99848 12.9526 9.90237 13.2085 9.71027C13.4644 9.51817 13.6683 9.26209 13.8202 8.94203C13.9721 8.62197 14.0479 8.28194 14.0478 7.92194C14.0477 7.61794 13.9876 7.33396 13.8675 7.07001C13.7473 6.79806 13.5833 6.58212 13.3752 6.42221C13.1671 6.25429 12.9391 6.17038 12.6911 6.17048C12.4111 6.17059 12.1471 6.27069 11.8992 6.47079C11.6593 6.66289 11.4674 6.92296 11.3235 7.25102C11.1797 7.57108 11.1078 7.9151 11.1079 8.2831C11.1081 8.6431 11.1682 8.95108 11.2883 9.20703C11.4164 9.46298 11.5765 9.65892 11.7685 9.79484C11.9686 9.93076 12.1806 9.99868 12.4046 9.99859ZM18.6043 11.0761C18.1483 11.0763 17.7282 10.9525 17.3441 10.7046C16.968 10.4568 16.6719 10.1209 16.4557 9.69699C16.2395 9.26507 16.1314 8.79711 16.1312 8.29311C16.1309 7.72511 16.2587 7.19706 16.5145 6.70896C16.7703 6.21286 17.1142 5.82072 17.5461 5.53255C17.9779 5.23638 18.4419 5.0882 18.9379 5.088C19.3939 5.08782 19.8099 5.21566 20.186 5.47151C20.5701 5.72735 20.8703 6.06724 21.0864 6.49115C21.3106 6.91506 21.4228 7.37102 21.423 7.85902C21.4232 8.43502 21.2954 8.97107 21.0396 9.46717C20.7838 9.95527 20.436 10.3474 19.9961 10.6436C19.5642 10.9318 19.1003 11.0759 18.6043 11.0761ZM18.6038 9.99613C18.8838 9.99602 19.1518 9.89992 19.4077 9.70782C19.6636 9.51571 19.8675 9.25963 20.0194 8.93957C20.1713 8.61951 20.2472 8.27948 20.247 7.91948C20.2469 7.61548 20.1868 7.33151 20.0667 7.06755C19.9466 6.7956 19.7825 6.57967 19.5744 6.41975C19.3663 6.25183 19.1383 6.16792 18.8903 6.16802C18.6103 6.16813 18.3464 6.26824 18.0984 6.46833C17.8585 6.66043 17.6666 6.92051 17.5227 7.24856C17.3789 7.56862 17.307 7.91265 17.3072 8.28065C17.3073 8.64065 17.3674 8.94862 17.4875 9.20458C17.6156 9.46053 17.7757 9.65646 17.9678 9.79239C18.1678 9.92831 18.3798 9.99622 18.6038 9.99613ZM24.4795 11.0618C24.0715 11.062 23.7034 10.9581 23.3754 10.7502C23.0553 10.5344 22.7991 10.2225 22.607 9.81455C22.4228 9.40662 22.3306 8.91866 22.3304 8.35066C22.3301 7.66266 22.4379 7.07461 22.6537 6.58653C22.8695 6.09844 23.1694 5.73032 23.5533 5.48217C23.9372 5.22602 24.3811 5.09784 24.8851 5.09764C25.2851 5.09749 25.7131 5.18932 26.1692 5.37314L26.2285 3.51311C26.2364 3.35311 26.2964 3.21709 26.4083 3.10504C26.5283 2.98499 26.6683 2.92494 26.8283 2.92487C26.9803 2.92481 27.1123 2.98476 27.2243 3.10472C27.3444 3.21667 27.4004 3.36065 27.3925 3.53665L27.2273 10.5207C27.2193 10.6807 27.1594 10.8127 27.0474 10.9168C26.9355 11.0208 26.7995 11.0729 26.6395 11.073C26.4875 11.073 26.3555 11.0291 26.2434 10.9411C26.1394 10.8531 26.0873 10.7372 26.0873 10.5932L26.0872 10.3772C25.8793 10.5693 25.6353 10.7333 25.3554 10.8695C25.0754 10.9976 24.7835 11.0617 24.4795 11.0618ZM24.575 9.98177C24.847 9.98166 25.099 9.92556 25.331 9.81347C25.5709 9.69337 25.7589 9.5493 25.8948 9.38125C26.0307 9.21319 26.1027 9.05716 26.1106 8.91316L26.1577 6.54914C26.0136 6.4532 25.8296 6.36927 25.6056 6.29736C25.3816 6.21745 25.1655 6.17753 24.9575 6.17762C24.4695 6.17781 24.1016 6.36196 23.8538 6.73005C23.6059 7.09015 23.4821 7.6182 23.4824 8.3142C23.4826 8.8902 23.5788 9.31416 23.7709 9.58609C23.971 9.85001 24.239 9.9819 24.575 9.98177Z"/>
</mask>
<path d="M5.13239 11.0935C4.41239 11.0938 3.77232 10.906 3.21217 10.5302C2.66002 10.1545 2.23182 9.66262 1.92758 9.05474C1.63134 8.43886 1.48308 7.78692 1.48281 7.09892C1.48254 6.41892 1.64228 5.75485 1.96202 5.10673C2.28176 4.4506 2.72955 3.91842 3.30539 3.5102C3.88922 3.09396 4.55714 2.8857 5.30914 2.8854C6.01314 2.88512 6.6052 3.03689 7.08532 3.3407C7.57344 3.6365 7.93757 3.97636 8.17772 4.36026C8.41788 4.74417 8.538 5.04812 8.53809 5.27212C8.53815 5.44012 8.48621 5.57614 8.38225 5.68018C8.27829 5.77622 8.1383 5.82428 7.9623 5.82435C7.6743 5.82446 7.48225 5.69654 7.38615 5.44058C7.242 5.05664 7.00187 4.73673 6.66577 4.48086C6.32967 4.217 5.87761 4.08518 5.30962 4.0854C4.71762 4.08564 4.22168 4.26183 3.82182 4.61399C3.42996 4.95815 3.14212 5.36626 2.95831 5.83833C2.7745 6.31041 2.68266 6.73044 2.68281 7.09844C2.68298 7.53044 2.77515 7.96241 2.95932 8.39433C3.14349 8.82626 3.41964 9.18615 3.78775 9.474C4.16386 9.75386 4.61192 9.89368 5.13192 9.89347C5.64392 9.89327 6.09187 9.76509 6.47576 9.50894C6.85966 9.24479 7.14351 8.87667 7.32733 8.4046L7.14733 8.40467C6.87533 8.42078 6.57535 8.4689 6.24738 8.54903C6.1114 8.58908 6.00341 8.60913 5.92341 8.60916C5.76341 8.60922 5.62339 8.55728 5.50335 8.45332C5.3913 8.34137 5.33524 8.19339 5.33517 8.00939C5.33506 7.73739 5.47898 7.54133 5.76694 7.42122C5.90291 7.36517 6.1229 7.31708 6.42688 7.27696C6.73886 7.23684 7.05486 7.21671 7.37486 7.21658C7.83086 7.2164 8.27488 7.28423 8.70694 7.42006C8.96297 7.49995 9.09104 7.6879 9.09116 7.9839C9.09121 8.1199 9.05126 8.23992 8.9713 8.34395C8.89134 8.43998 8.79137 8.50802 8.67138 8.54807C8.60739 8.56409 8.55939 8.57211 8.52739 8.57213C8.30369 9.31622 7.89193 9.92438 7.29212 10.3966C6.7003 10.8609 5.98039 11.0931 5.13239 11.0935ZM12.405 11.0786C11.949 11.0788 11.529 10.9549 11.1449 10.7071C10.7688 10.4592 10.4727 10.1234 10.2565 9.69944C10.0403 9.26753 9.93214 8.79957 9.93194 8.29557C9.93171 7.72757 10.0595 7.19952 10.3153 6.71142C10.5711 6.21532 10.915 5.82318 11.3468 5.53501C11.7787 5.23884 12.2427 5.09065 12.7387 5.09046C13.1947 5.09028 13.6107 5.21811 13.9868 5.47396C14.3709 5.72981 14.6711 6.06969 14.8872 6.49361C15.1114 6.91752 15.2236 7.37347 15.2238 7.86147C15.224 8.43747 15.0962 8.97352 14.8404 9.46963C14.5846 9.95773 14.2368 10.3499 13.7969 10.646C13.365 10.9342 12.901 11.0784 12.405 11.0786ZM12.4046 9.99859C12.6846 9.99848 12.9526 9.90237 13.2085 9.71027C13.4644 9.51817 13.6683 9.26209 13.8202 8.94203C13.9721 8.62197 14.0479 8.28194 14.0478 7.92194C14.0477 7.61794 13.9876 7.33396 13.8675 7.07001C13.7473 6.79806 13.5833 6.58212 13.3752 6.42221C13.1671 6.25429 12.9391 6.17038 12.6911 6.17048C12.4111 6.17059 12.1471 6.27069 11.8992 6.47079C11.6593 6.66289 11.4674 6.92296 11.3235 7.25102C11.1797 7.57108 11.1078 7.9151 11.1079 8.2831C11.1081 8.6431 11.1682 8.95108 11.2883 9.20703C11.4164 9.46298 11.5765 9.65892 11.7685 9.79484C11.9686 9.93076 12.1806 9.99868 12.4046 9.99859ZM18.6043 11.0761C18.1483 11.0763 17.7282 10.9525 17.3441 10.7046C16.968 10.4568 16.6719 10.1209 16.4557 9.69699C16.2395 9.26507 16.1314 8.79711 16.1312 8.29311C16.1309 7.72511 16.2587 7.19706 16.5145 6.70896C16.7703 6.21286 17.1142 5.82072 17.5461 5.53255C17.9779 5.23638 18.4419 5.0882 18.9379 5.088C19.3939 5.08782 19.8099 5.21566 20.186 5.47151C20.5701 5.72735 20.8703 6.06724 21.0864 6.49115C21.3106 6.91506 21.4228 7.37102 21.423 7.85902C21.4232 8.43502 21.2954 8.97107 21.0396 9.46717C20.7838 9.95527 20.436 10.3474 19.9961 10.6436C19.5642 10.9318 19.1003 11.0759 18.6043 11.0761ZM18.6038 9.99613C18.8838 9.99602 19.1518 9.89992 19.4077 9.70782C19.6636 9.51571 19.8675 9.25963 20.0194 8.93957C20.1713 8.61951 20.2472 8.27948 20.247 7.91948C20.2469 7.61548 20.1868 7.33151 20.0667 7.06755C19.9466 6.7956 19.7825 6.57967 19.5744 6.41975C19.3663 6.25183 19.1383 6.16792 18.8903 6.16802C18.6103 6.16813 18.3464 6.26824 18.0984 6.46833C17.8585 6.66043 17.6666 6.92051 17.5227 7.24856C17.3789 7.56862 17.307 7.91265 17.3072 8.28065C17.3073 8.64065 17.3674 8.94862 17.4875 9.20458C17.6156 9.46053 17.7757 9.65646 17.9678 9.79239C18.1678 9.92831 18.3798 9.99622 18.6038 9.99613ZM24.4795 11.0618C24.0715 11.062 23.7034 10.9581 23.3754 10.7502C23.0553 10.5344 22.7991 10.2225 22.607 9.81455C22.4228 9.40662 22.3306 8.91866 22.3304 8.35066C22.3301 7.66266 22.4379 7.07461 22.6537 6.58653C22.8695 6.09844 23.1694 5.73032 23.5533 5.48217C23.9372 5.22602 24.3811 5.09784 24.8851 5.09764C25.2851 5.09749 25.7131 5.18932 26.1692 5.37314L26.2285 3.51311C26.2364 3.35311 26.2964 3.21709 26.4083 3.10504C26.5283 2.98499 26.6683 2.92494 26.8283 2.92487C26.9803 2.92481 27.1123 2.98476 27.2243 3.10472C27.3444 3.21667 27.4004 3.36065 27.3925 3.53665L27.2273 10.5207C27.2193 10.6807 27.1594 10.8127 27.0474 10.9168C26.9355 11.0208 26.7995 11.0729 26.6395 11.073C26.4875 11.073 26.3555 11.0291 26.2434 10.9411C26.1394 10.8531 26.0873 10.7372 26.0873 10.5932L26.0872 10.3772C25.8793 10.5693 25.6353 10.7333 25.3554 10.8695C25.0754 10.9976 24.7835 11.0617 24.4795 11.0618ZM24.575 9.98177C24.847 9.98166 25.099 9.92556 25.331 9.81347C25.5709 9.69337 25.7589 9.5493 25.8948 9.38125C26.0307 9.21319 26.1027 9.05716 26.1106 8.91316L26.1577 6.54914C26.0136 6.4532 25.8296 6.36927 25.6056 6.29736C25.3816 6.21745 25.1655 6.17753 24.9575 6.17762C24.4695 6.17781 24.1016 6.36196 23.8538 6.73005C23.6059 7.09015 23.4821 7.6182 23.4824 8.3142C23.4826 8.8902 23.5788 9.31416 23.7709 9.58609C23.971 9.85001 24.239 9.9819 24.575 9.98177Z" fill="#002C14"/>
<path d="M3.21217 10.5302L2.64952 11.357L2.65506 11.3607L3.21217 10.5302ZM1.92758 9.05474L1.02641 9.48821L1.02982 9.49529L1.03333 9.50231L1.92758 9.05474ZM1.96202 5.10673L2.85884 5.54916L2.86096 5.5448L1.96202 5.10673ZM3.30539 3.5102L3.88373 4.32599L3.88589 4.32445L3.30539 3.5102ZM7.08532 3.3407L6.5506 4.18573L6.55878 4.1909L6.56705 4.19591L7.08532 3.3407ZM8.17772 4.36026L9.02551 3.82993L9.02551 3.82993L8.17772 4.36026ZM8.38225 5.68018L9.06082 6.41472L9.0755 6.40115L9.08963 6.38701L8.38225 5.68018ZM7.38615 5.44058L6.44996 5.79207L6.44996 5.79207L7.38615 5.44058ZM6.66577 4.48086L6.04826 5.26743L6.05412 5.27202L6.06004 5.27654L6.66577 4.48086ZM3.82182 4.61399L4.48171 5.36535L4.48275 5.36444L3.82182 4.61399ZM2.95831 5.83833L2.02646 5.47549L2.02646 5.47549L2.95831 5.83833ZM3.78775 9.474L3.17175 10.2618L3.18119 10.2691L3.1908 10.2763L3.78775 9.474ZM6.47576 9.50894L7.03079 10.3408L7.03674 10.3368L7.04262 10.3328L6.47576 9.50894ZM7.32733 8.4046L8.25918 8.76744L8.79006 7.40402L7.32693 7.4046L7.32733 8.4046ZM7.14733 8.40467L7.14693 7.40467L7.11754 7.40469L7.08821 7.40642L7.14733 8.40467ZM6.24738 8.54903L6.01004 7.5776L5.9873 7.58316L5.96484 7.58978L6.24738 8.54903ZM5.50335 8.45332L4.79652 9.16071L4.82175 9.18592L4.84871 9.20927L5.50335 8.45332ZM5.76694 7.42122L5.38582 6.49668L5.38196 6.4983L5.76694 7.42122ZM6.42688 7.27696L6.29932 6.28512L6.29603 6.28556L6.42688 7.27696ZM8.70694 7.42006L8.40703 8.37403L8.40904 8.37465L8.70694 7.42006ZM8.9713 8.34395L9.73978 8.98383L9.75227 8.96883L9.76417 8.95335L8.9713 8.34395ZM8.67138 8.54807L8.9143 9.51812L8.95156 9.50879L8.98799 9.49663L8.67138 8.54807ZM8.52739 8.57213L8.527 7.57213L7.78373 7.57242L7.56974 8.28421L8.52739 8.57213ZM7.29212 10.3966L7.90931 11.1834L7.91071 11.1823L7.29212 10.3966ZM5.13239 11.0935L5.132 10.0935C4.59647 10.0937 4.15323 9.95737 3.76927 9.69979L3.21217 10.5302L2.65506 11.3607C3.3914 11.8547 4.22831 12.0938 5.13279 12.0935L5.13239 11.0935ZM3.21217 10.5302L3.77481 9.70353C3.36633 9.42553 3.05112 9.06529 2.82183 8.60717L1.92758 9.05474L1.03333 9.50231C1.41253 10.26 1.95371 10.8834 2.64953 11.3569L3.21217 10.5302ZM1.92758 9.05474L2.82875 8.62127C2.59795 8.14145 2.48302 7.63762 2.48281 7.09852L1.48281 7.09892L0.482809 7.09931C0.48314 7.93621 0.664726 8.73627 1.02641 9.48821L1.92758 9.05474ZM1.48281 7.09892L2.48281 7.09852C2.4826 6.58168 2.60265 6.06841 2.85882 5.54915L1.96202 5.10673L1.06521 4.6643C0.681897 5.44129 0.482474 6.25616 0.482809 7.09931L1.48281 7.09892ZM1.96202 5.10673L2.86096 5.5448C3.10981 5.03414 3.44951 4.63382 3.88373 4.32599L3.30539 3.5102L2.72705 2.6944C2.00958 3.20303 1.45371 3.86706 1.06308 4.66866L1.96202 5.10673ZM3.30539 3.5102L3.88589 4.32445C4.2918 4.03507 4.75473 3.88562 5.30954 3.8854L5.30914 2.8854L5.30874 1.8854C4.35955 1.88578 3.48664 2.15286 2.72488 2.69594L3.30539 3.5102ZM5.30914 2.8854L5.30954 3.8854C5.86935 3.88518 6.26495 4.00497 6.5506 4.18573L7.08532 3.3407L7.62004 2.49567C6.94545 2.0688 6.15693 1.88506 5.30874 1.8854L5.30914 2.8854ZM7.08532 3.3407L6.56705 4.19591C6.95539 4.43125 7.19147 4.66925 7.32994 4.8906L8.17772 4.36026L9.02551 3.82993C8.68367 3.28347 8.19149 2.84176 7.60359 2.48548L7.08532 3.3407ZM8.17772 4.36026L7.32994 4.8906C7.42906 5.04906 7.48694 5.16531 7.51792 5.24369C7.55114 5.32775 7.53811 5.32988 7.53809 5.27252L8.53809 5.27212L9.53809 5.27173C9.53788 4.74901 9.28209 4.24009 9.02551 3.82993L8.17772 4.36026ZM8.53809 5.27212L7.53809 5.27252C7.53808 5.25296 7.54125 5.20551 7.56498 5.14337C7.58969 5.07868 7.62851 5.01974 7.67486 4.97336L8.38225 5.68018L9.08963 6.38701C9.40817 6.06822 9.53824 5.66395 9.53809 5.27173L8.53809 5.27212ZM8.38225 5.68018L7.70367 4.94565C7.75835 4.89514 7.81936 4.8614 7.87459 4.84244C7.92659 4.82459 7.95987 4.82435 7.96191 4.82435L7.9623 5.82435L7.9627 6.82435C8.3261 6.82421 8.73004 6.7203 9.06082 6.41472L8.38225 5.68018ZM7.9623 5.82435L7.96191 4.82435C7.96625 4.82435 8.05177 4.82637 8.15664 4.89622C8.26561 4.96881 8.31068 5.05802 8.32234 5.08908L7.38615 5.44058L6.44996 5.79207C6.55773 6.07909 6.74687 6.36025 7.0479 6.56076C7.34481 6.75854 7.67036 6.82447 7.9627 6.82435L7.9623 5.82435ZM7.38615 5.44058L8.32234 5.08908C8.10997 4.52345 7.75263 4.05146 7.2715 3.68519L6.66577 4.48086L6.06004 5.27654C6.25112 5.422 6.37403 5.58983 6.44996 5.79207L7.38615 5.44058ZM6.66577 4.48086L7.28328 3.6943C6.72058 3.25254 6.02752 3.08512 5.30922 3.0854L5.30962 4.0854L5.31001 5.0854C5.72771 5.08524 5.93876 5.18146 6.04826 5.26743L6.66577 4.48086ZM5.30962 4.0854L5.30922 3.0854C4.50305 3.08572 3.76393 3.33244 3.1609 3.86354L3.82182 4.61399L4.48275 5.36444C4.67944 5.19122 4.93218 5.08555 5.31001 5.0854L5.30962 4.0854ZM3.82182 4.61399L3.16194 3.86263C2.65326 4.30937 2.27021 4.84948 2.02646 5.47549L2.95831 5.83833L3.89016 6.20117C4.01403 5.88304 4.20666 5.60692 4.48171 5.36535L3.82182 4.61399ZM2.95831 5.83833L2.02646 5.47549C1.81338 6.02272 1.6826 6.56937 1.68281 7.09884L2.68281 7.09844L3.68281 7.09805C3.68273 6.89151 3.73561 6.59809 3.89016 6.20117L2.95831 5.83833ZM2.68281 7.09844L1.68281 7.09884C1.68304 7.67684 1.80709 8.24161 2.03945 8.78656L2.95932 8.39433L3.87919 8.00211C3.74321 7.6832 3.68292 7.38405 3.68281 7.09805L2.68281 7.09844ZM2.95932 8.39433L2.03945 8.78656C2.28955 9.37309 2.6699 9.86932 3.17175 10.2618L3.78775 9.474L4.40375 8.68626C4.16938 8.50298 3.99744 8.27943 3.87919 8.00211L2.95932 8.39433ZM3.78775 9.474L3.1908 10.2763C3.7584 10.6986 4.42184 10.8938 5.13231 10.8935L5.13192 9.89347L5.13152 8.89347C4.802 8.8936 4.56932 8.8091 4.3847 8.67172L3.78775 9.474ZM5.13192 9.89347L5.13231 10.8935C5.8193 10.8932 6.46495 10.7183 7.03079 10.3408L6.47576 9.50894L5.92073 8.67711C5.71878 8.81186 5.46854 8.89334 5.13152 8.89347L5.13192 9.89347ZM6.47576 9.50894L7.04262 10.3328C7.60607 9.94505 8.00928 9.40924 8.25918 8.76744L7.32733 8.4046L6.39547 8.04176C6.27775 8.34411 6.11325 8.54452 5.90891 8.68512L6.47576 9.50894ZM7.32733 8.4046L7.32693 7.4046L7.14693 7.40467L7.14733 8.40467L7.14772 9.40467L7.32772 9.4046L7.32733 8.4046ZM7.14733 8.40467L7.08821 7.40642C6.7439 7.42681 6.38325 7.48642 6.01004 7.5776L6.24738 8.54903L6.48472 9.52046C6.76745 9.45138 7.00677 9.41475 7.20644 9.40292L7.14733 8.40467ZM6.24738 8.54903L5.96484 7.58978C5.92086 7.60273 5.89414 7.60863 5.88192 7.61089C5.87627 7.61194 5.87672 7.61165 5.88248 7.61104C5.88801 7.61045 5.90202 7.60917 5.92301 7.60916L5.92341 8.60916L5.9238 9.60916C6.14579 9.60907 6.36132 9.55795 6.52993 9.50828L6.24738 8.54903ZM5.92341 8.60916L5.92301 7.60916C5.95334 7.60915 5.99705 7.61445 6.04621 7.63268C6.09547 7.65096 6.13321 7.67593 6.15798 7.69738L5.50335 8.45332L4.84871 9.20927C5.15214 9.47203 5.52522 9.60932 5.9238 9.60916L5.92341 8.60916ZM5.50335 8.45332L6.21017 7.74594C6.25433 7.79006 6.29018 7.84541 6.31241 7.90411C6.33358 7.95998 6.33517 7.99945 6.33517 8.009L5.33517 8.00939L4.33517 8.00979C4.33533 8.41265 4.46643 8.83089 4.79652 9.16071L5.50335 8.45332ZM5.33517 8.00939L6.33517 8.009C6.33519 8.05957 6.31801 8.1563 6.24915 8.25011C6.18702 8.33474 6.12913 8.35365 6.15192 8.34414L5.76694 7.42122L5.38196 6.4983C5.11679 6.60891 4.84297 6.7859 4.63691 7.06659C4.42413 7.35646 4.33504 7.68721 4.33517 8.00979L5.33517 8.00939ZM5.76694 7.42122L6.14805 8.34575C6.14136 8.34851 6.16805 8.33741 6.24746 8.32005C6.32235 8.30367 6.42433 8.28597 6.55773 8.26836L6.42688 7.27696L6.29603 6.28556C5.978 6.32753 5.64899 6.38821 5.38582 6.49669L5.76694 7.42122ZM6.42688 7.27696L6.55444 8.26879C6.82353 8.23418 7.09703 8.21669 7.37525 8.21658L7.37486 7.21658L7.37446 6.21658C7.01268 6.21673 6.6542 6.23949 6.29932 6.28513L6.42688 7.27696ZM7.37486 7.21658L7.37525 8.21658C7.7301 8.21644 8.07282 8.26896 8.40703 8.37402L8.70694 7.42006L9.00684 6.46609C8.47694 6.2995 7.93161 6.21636 7.37446 6.21658L7.37486 7.21658ZM8.70694 7.42006L8.40904 8.37465C8.36197 8.35996 8.25341 8.30846 8.16864 8.18406C8.09002 8.06869 8.09116 7.97711 8.09116 7.9843L9.09116 7.9839L10.0912 7.98351C10.091 7.6947 10.0281 7.36114 9.82139 7.05782C9.60855 6.74547 9.30794 6.56004 9.00483 6.46546L8.70694 7.42006ZM9.09116 7.9839L8.09116 7.9843C8.09115 7.9529 8.09599 7.90943 8.11243 7.86006C8.129 7.81029 8.15299 7.76766 8.17844 7.73455L8.9713 8.34395L9.76417 8.95335C9.98371 8.66771 10.0913 8.33139 10.0912 7.98351L9.09116 7.9839ZM8.9713 8.34395L8.20283 7.70407C8.22043 7.68294 8.24418 7.6604 8.27371 7.6403C8.30317 7.62025 8.33157 7.60726 8.35478 7.59951L8.67138 8.54807L8.98799 9.49663C9.28209 9.39846 9.5393 9.2246 9.73978 8.98383L8.9713 8.34395ZM8.67138 8.54807L8.42846 7.57802C8.41389 7.58167 8.41301 7.58138 8.4226 7.57977C8.42783 7.5789 8.43883 7.57719 8.45449 7.57562C8.46961 7.5741 8.49464 7.57214 8.527 7.57213L8.52739 8.57213L8.52779 9.57213C8.68891 9.57206 8.8362 9.53767 8.9143 9.51812L8.67138 8.54807ZM8.52739 8.57213L7.56974 8.28421C7.40408 8.83521 7.10879 9.26821 6.67352 9.61091L7.29212 10.3966L7.91071 11.1823C8.67506 10.5805 9.20329 9.79722 9.48505 8.86004L8.52739 8.57213ZM7.29212 10.3966L6.67492 9.6098C6.28133 9.91855 5.78637 10.0932 5.132 10.0935L5.13239 11.0935L5.13279 12.0935C6.17442 12.0931 7.11927 11.8032 7.90931 11.1834L7.29212 10.3966ZM11.1449 10.7071L10.5946 11.5421L10.6027 11.5473L11.1449 10.7071ZM10.2565 9.69944L9.36222 10.147L9.36564 10.1537L10.2565 9.69944ZM10.3153 6.71142L11.2011 7.17563L11.2041 7.16971L10.3153 6.71142ZM11.3468 5.53501L11.9019 6.36691L11.9124 6.35972L11.3468 5.53501ZM13.9868 5.47396L13.4243 6.30082L13.4325 6.30623L13.9868 5.47396ZM14.8872 6.49361L13.9964 6.94789L13.9997 6.95451L14.0032 6.96108L14.8872 6.49361ZM14.8404 9.46963L15.7262 9.93383L15.7292 9.92792L14.8404 9.46963ZM13.7969 10.646L14.3519 11.4779L14.3554 11.4755L13.7969 10.646ZM13.8675 7.07001L12.9526 7.47404L12.9573 7.48417L13.8675 7.07001ZM13.3752 6.42221L12.7472 7.2004L12.7564 7.20784L12.7658 7.21507L13.3752 6.42221ZM11.8992 6.47079L12.5242 7.25142L12.5273 7.24895L11.8992 6.47079ZM11.3235 7.25102L12.2356 7.66104L12.2393 7.65265L11.3235 7.25102ZM11.2883 9.20703L10.383 9.63183L10.3884 9.64328L10.3941 9.6546L11.2883 9.20703ZM11.7685 9.79484L11.1908 10.6111L11.1986 10.6166L11.2066 10.622L11.7685 9.79484ZM12.405 11.0786L12.4046 10.0786C12.1416 10.0787 11.9099 10.0106 11.6871 9.86684L11.1449 10.7071L10.6027 11.5473C11.1481 11.8993 11.7565 12.0788 12.4054 12.0786L12.405 11.0786ZM11.1449 10.7071L11.6952 9.8721C11.4719 9.72495 11.2895 9.52386 11.1474 9.24516L10.2565 9.69944L9.36564 10.1537C9.65586 10.7229 10.0657 11.1935 10.5946 11.5421L11.1449 10.7071ZM10.2565 9.69944L11.1507 9.25187C11.0071 8.96488 10.9321 8.65089 10.9319 8.29517L9.93194 8.29557L8.93194 8.29597C8.9322 8.94825 9.07354 9.57018 9.36225 10.147L10.2565 9.69944ZM9.93194 8.29557L10.9319 8.29517C10.9318 7.88385 11.0227 7.51588 11.201 7.17562L10.3153 6.71142L9.42958 6.24722C9.0963 6.88316 8.93165 7.57129 8.93194 8.29597L9.93194 8.29557ZM10.3153 6.71142L11.2041 7.16971C11.3882 6.81276 11.6217 6.55381 11.9019 6.36684L11.3468 5.53501L10.7918 4.70318C10.2083 5.09255 9.75406 5.61787 9.42651 6.25313L10.3153 6.71142ZM11.3468 5.53501L11.9124 6.35972C12.1877 6.17092 12.4564 6.09057 12.7391 6.09046L12.7387 5.09046L12.7383 4.09046C12.0289 4.09074 11.3698 4.30675 10.7813 4.7103L11.3468 5.53501ZM12.7387 5.09046L12.7391 6.09046C12.9948 6.09036 13.2147 6.15815 13.4244 6.30079L13.9868 5.47396L14.5493 4.64714C14.0068 4.27808 13.3945 4.0902 12.7383 4.09046L12.7387 5.09046ZM13.9868 5.47396L13.4325 6.30623C13.6693 6.46398 13.8556 6.67178 13.9964 6.94789L14.8872 6.49361L15.7781 6.03933C15.4865 5.4676 15.0726 4.99564 14.5412 4.64169L13.9868 5.47396ZM14.8872 6.49361L14.0032 6.96108C14.1499 7.23844 14.2236 7.53369 14.2238 7.86187L15.2238 7.86147L16.2238 7.86108C16.2235 7.21326 16.0729 6.5966 15.7712 6.02614L14.8872 6.49361ZM15.2238 7.86147L14.2238 7.86187C14.2239 8.28357 14.1319 8.66169 13.9516 9.01133L14.8404 9.46963L15.7292 9.92792C16.0605 9.28536 16.2241 8.59137 16.2238 7.86108L15.2238 7.86147ZM14.8404 9.46963L13.9547 9.00543C13.7728 9.35246 13.5351 9.61678 13.2384 9.81654L13.7969 10.646L14.3554 11.4755C14.9385 11.083 15.3964 10.563 15.7261 9.93382L14.8404 9.46963ZM13.7969 10.646L13.2418 9.81421C12.9661 9.99821 12.6937 10.0785 12.4046 10.0786L12.405 11.0786L12.4054 12.0786C13.1084 12.0783 13.7639 11.8702 14.3519 11.4779L13.7969 10.646ZM12.4046 9.99859L12.405 10.9986C12.9316 10.9984 13.4057 10.8127 13.8088 10.51L13.2085 9.71027L12.6082 8.91051C12.4995 8.99209 12.4377 8.99858 12.4042 8.99859L12.4046 9.99859ZM13.2085 9.71027L13.8088 10.51C14.2078 10.2106 14.5099 9.82126 14.7236 9.37073L13.8202 8.94203L12.9167 8.51333C12.8268 8.70292 12.7211 8.82578 12.6082 8.91051L13.2085 9.71027ZM13.8202 8.94203L14.7236 9.37073C14.9402 8.91435 15.048 8.42748 15.0478 7.92154L14.0478 7.92194L13.0478 7.92234C13.0479 8.13639 13.0039 8.32959 12.9167 8.51333L13.8202 8.94203ZM14.0478 7.92194L15.0478 7.92154C15.0476 7.48184 14.9597 7.056 14.7777 6.65585L13.8675 7.07001L12.9573 7.48417C13.0154 7.61193 13.0477 7.75404 13.0478 7.92234L14.0478 7.92194ZM13.8675 7.07001L14.7822 6.66601C14.6036 6.26155 14.3422 5.90419 13.9846 5.62934L13.3752 6.42221L12.7658 7.21507C12.8243 7.26006 12.8911 7.33457 12.9527 7.47401L13.8675 7.07001ZM13.3752 6.42221L14.0032 5.64402C13.6321 5.3445 13.1858 5.17028 12.6907 5.17048L12.6911 6.17048L12.6915 7.17048C12.6968 7.17047 12.6993 7.17089 12.7 7.17101C12.7006 7.17111 12.7013 7.17127 12.7028 7.17181C12.7047 7.17253 12.7195 7.17808 12.7472 7.2004L13.3752 6.42221ZM12.6911 6.17048L12.6907 5.17048C12.1511 5.17069 11.671 5.36993 11.2712 5.69263L11.8992 6.47079L12.5273 7.24895C12.6233 7.17146 12.671 7.17048 12.6915 7.17048L12.6911 6.17048ZM11.8992 6.47079L11.2742 5.69017C10.8888 5.99876 10.6057 6.3979 10.4077 6.84939L11.3235 7.25102L12.2393 7.65265C12.3291 7.44802 12.4298 7.32701 12.5242 7.25141L11.8992 6.47079ZM11.3235 7.25102L10.4114 6.84102C10.2067 7.29638 10.1077 7.78106 10.1079 8.2835L11.1079 8.2831L12.1079 8.28271C12.1078 8.04914 12.1526 7.84577 12.2356 7.66102L11.3235 7.25102ZM11.1079 8.2831L10.1079 8.2835C10.1081 8.75144 10.186 9.21195 10.383 9.63183L11.2883 9.20703L12.1936 8.78224C12.1504 8.69021 12.108 8.53477 12.1079 8.28271L11.1079 8.2831ZM11.2883 9.20703L10.3941 9.6546C10.58 10.0261 10.8385 10.3617 11.1908 10.6111L11.7685 9.79484L12.3462 8.97859C12.3145 8.95613 12.2528 8.89989 12.1826 8.75946L11.2883 9.20703ZM11.7685 9.79484L11.2066 10.622C11.5586 10.8612 11.9643 10.9988 12.405 10.9986L12.4046 9.99859L12.4042 8.99859C12.3969 8.99859 12.3786 9.00034 12.3305 8.96769L11.7685 9.79484ZM17.3441 10.7046L16.7938 11.5397L16.8019 11.5449L17.3441 10.7046ZM16.4557 9.69699L15.5614 10.1446L15.5649 10.1513L16.4557 9.69699ZM16.5145 6.70896L17.4003 7.17317L17.4033 7.16725L16.5145 6.70896ZM17.5461 5.53255L18.1011 6.36445L18.1116 6.35726L17.5461 5.53255ZM20.186 5.47151L19.6236 6.29837L19.6317 6.30378L20.186 5.47151ZM21.0864 6.49115L20.1956 6.94543L20.199 6.95205L20.2024 6.95862L21.0864 6.49115ZM21.0396 9.46717L21.9254 9.93138L21.9284 9.92546L21.0396 9.46717ZM19.9961 10.6436L20.5511 11.4754L20.5546 11.4731L19.9961 10.6436ZM20.0667 7.06755L19.1519 7.47158L19.1565 7.48172L20.0667 7.06755ZM19.5744 6.41975L18.9464 7.19794L18.9556 7.20539L18.965 7.21261L19.5744 6.41975ZM18.0984 6.46833L18.7234 7.24896L18.7265 7.2465L18.0984 6.46833ZM17.5227 7.24856L18.4349 7.65858L18.4385 7.65019L17.5227 7.24856ZM17.4875 9.20458L16.5822 9.62937L16.5876 9.64083L16.5933 9.65214L17.4875 9.20458ZM17.9678 9.79239L17.3901 10.6086L17.3979 10.6142L17.4058 10.6195L17.9678 9.79239ZM18.6043 11.0761L18.6039 10.0761C18.3408 10.0762 18.1091 10.0081 17.8863 9.86438L17.3441 10.7046L16.8019 11.5449C17.3473 11.8968 17.9557 12.0764 18.6047 12.0761L18.6043 11.0761ZM17.3441 10.7046L17.8944 9.86964C17.6711 9.7225 17.4887 9.5214 17.3466 9.24271L16.4557 9.69699L15.5649 10.1513C15.8551 10.7204 16.2649 11.1911 16.7938 11.5396L17.3441 10.7046ZM16.4557 9.69699L17.35 9.24942C17.2063 8.96242 17.1313 8.64843 17.1312 8.29272L16.1312 8.29311L15.1312 8.29351C15.1314 8.9458 15.2728 9.56772 15.5615 10.1446L16.4557 9.69699ZM16.1312 8.29311L17.1312 8.29272C17.131 7.88139 17.2219 7.51343 17.4003 7.17316L16.5145 6.70896L15.6288 6.24476C15.2955 6.8807 15.1309 7.56884 15.1312 8.29351L16.1312 8.29311ZM16.5145 6.70896L17.4033 7.16725C17.5874 6.8103 17.8209 6.55135 18.1011 6.36438L17.5461 5.53255L16.991 4.70072C16.4075 5.0901 15.9533 5.61542 15.6257 6.25067L16.5145 6.70896ZM17.5461 5.53255L18.1116 6.35726C18.3869 6.16847 18.6556 6.08811 18.9383 6.088L18.9379 5.088L18.9375 4.088C18.2282 4.08828 17.569 4.30429 16.9805 4.70784L17.5461 5.53255ZM18.9379 5.088L18.9383 6.088C19.1941 6.0879 19.4139 6.15569 19.6236 6.29833L20.186 5.47151L20.7485 4.64468C20.206 4.27562 19.5937 4.08774 18.9375 4.088L18.9379 5.088ZM20.186 5.47151L19.6317 6.30378C19.8685 6.46153 20.0548 6.66933 20.1956 6.94543L21.0864 6.49115L21.9773 6.03687C21.6858 5.46514 21.2718 4.99318 20.7404 4.63924L20.186 5.47151ZM21.0864 6.49115L20.2024 6.95862C20.3491 7.23598 20.4229 7.53123 20.423 7.85941L21.423 7.85902L22.423 7.85862C22.4227 7.2108 22.2721 6.59414 21.9705 6.02368L21.0864 6.49115ZM21.423 7.85902L20.423 7.85941C20.4232 8.28111 20.3311 8.65923 20.1508 9.00888L21.0396 9.46717L21.9284 9.92546C22.2597 9.28291 22.4233 8.58892 22.423 7.85862L21.423 7.85902ZM21.0396 9.46717L20.1539 9.00297C19.972 9.35001 19.7343 9.61432 19.4376 9.81408L19.9961 10.6436L20.5546 11.4731C21.1377 11.0805 21.5956 10.5605 21.9254 9.93137L21.0396 9.46717ZM19.9961 10.6436L19.4411 9.81175C19.1653 9.99576 18.8929 10.076 18.6039 10.0761L18.6043 11.0761L18.6047 12.0761C19.3076 12.0759 19.9631 11.8678 20.5511 11.4754L19.9961 10.6436ZM18.6038 9.99613L18.6042 10.9961C19.1308 10.9959 19.6049 10.8102 20.008 10.5076L19.4077 9.70782L18.8074 8.90805C18.6987 8.98963 18.6369 8.99612 18.6034 8.99613L18.6038 9.99613ZM19.4077 9.70782L20.008 10.5076C20.407 10.2081 20.7091 9.8188 20.9229 9.36827L20.0194 8.93957L19.116 8.51087C19.026 8.70046 18.9203 8.82332 18.8074 8.90805L19.4077 9.70782ZM20.0194 8.93957L20.9229 9.36827C21.1394 8.91189 21.2472 8.42503 21.247 7.91909L20.247 7.91948L19.247 7.91988C19.2471 8.13394 19.2032 8.32713 19.116 8.51087L20.0194 8.93957ZM20.247 7.91948L21.247 7.91909C21.2468 7.47939 21.159 7.05354 20.9769 6.65339L20.0667 7.06755L19.1565 7.48172C19.2146 7.60947 19.2469 7.75158 19.247 7.91988L20.247 7.91948ZM20.0667 7.06755L20.9814 6.66355C20.8028 6.25909 20.5414 5.90173 20.1838 5.62688L19.5744 6.41975L18.965 7.21261C19.0235 7.2576 19.0903 7.33211 19.1519 7.47156L20.0667 7.06755ZM19.5744 6.41975L20.2024 5.64156C19.8313 5.34205 19.385 5.16782 18.8899 5.16802L18.8903 6.16802L18.8907 7.16802C18.896 7.16802 18.8985 7.16844 18.8992 7.16855C18.8998 7.16866 18.9005 7.16881 18.902 7.16936C18.9039 7.17007 18.9187 7.17563 18.9464 7.19794L19.5744 6.41975ZM18.8903 6.16802L18.8899 5.16802C18.3504 5.16823 17.8702 5.36747 17.4704 5.69017L18.0984 6.46833L18.7265 7.2465C18.8225 7.169 18.8703 7.16803 18.8907 7.16802L18.8903 6.16802ZM18.0984 6.46833L17.4734 5.68771C17.088 5.99631 16.8049 6.39545 16.6069 6.84693L17.5227 7.24856L18.4385 7.65019C18.5283 7.44556 18.629 7.32455 18.7234 7.24895L18.0984 6.46833ZM17.5227 7.24856L16.6107 6.83856C16.406 7.29393 16.307 7.77861 16.3072 8.28104L17.3072 8.28065L18.3072 8.28025C18.3071 8.04669 18.3518 7.84331 18.4348 7.65857L17.5227 7.24856ZM17.3072 8.28065L16.3072 8.28104C16.3073 8.74898 16.3852 9.2095 16.5822 9.62937L17.4875 9.20458L18.3928 8.77978C18.3496 8.68775 18.3073 8.53232 18.3072 8.28025L17.3072 8.28065ZM17.4875 9.20458L16.5933 9.65214C16.7792 10.0236 17.0377 10.3592 17.3901 10.6086L17.9678 9.79239L18.5454 8.97613C18.5137 8.95368 18.452 8.89743 18.3818 8.75701L17.4875 9.20458ZM17.9678 9.79239L17.4058 10.6195C17.7578 10.8587 18.1635 10.9963 18.6042 10.9961L18.6038 9.99613L18.6034 8.99613C18.5961 8.99614 18.5778 8.99788 18.5297 8.96524L17.9678 9.79239ZM23.3754 10.7502L22.8162 11.5793L22.8281 11.5873L22.8401 11.595L23.3754 10.7502ZM22.607 9.81455L21.6956 10.226L21.6989 10.2334L21.7023 10.2407L22.607 9.81455ZM22.6537 6.58653L21.7391 6.18214L21.7391 6.18214L22.6537 6.58653ZM23.5533 5.48217L24.0961 6.322L24.1022 6.31804L24.1083 6.314L23.5533 5.48217ZM26.1692 5.37314L25.7954 6.30063L27.1231 6.83577L27.1687 5.40498L26.1692 5.37314ZM26.2285 3.51311L25.2297 3.46357L25.2293 3.47242L25.229 3.48127L26.2285 3.51311ZM27.2243 3.10472L26.4935 3.78733L26.5171 3.81253L26.5423 3.83604L27.2243 3.10472ZM27.3925 3.53665L26.3935 3.49164L26.393 3.50231L26.3928 3.513L27.3925 3.53665ZM27.2273 10.5207L28.226 10.5703L28.2267 10.5573L28.227 10.5444L27.2273 10.5207ZM27.0474 10.9168L27.7282 11.6493L27.7282 11.6493L27.0474 10.9168ZM26.2434 10.9411L25.5978 11.7047L25.6116 11.7165L25.6259 11.7277L26.2434 10.9411ZM26.0872 10.3772L27.0872 10.3768L27.0863 8.09279L25.4086 9.64263L26.0872 10.3772ZM25.3554 10.8695L25.7715 11.7788L25.7821 11.7739L25.7927 11.7688L25.3554 10.8695ZM25.331 9.81347L25.7661 10.7139L25.7785 10.7077L25.331 9.81347ZM25.8948 9.38125L25.1173 8.75235L25.1173 8.75236L25.8948 9.38125ZM26.1106 8.91316L27.1091 8.96823L27.1101 8.95066L27.1104 8.93306L26.1106 8.91316ZM26.1577 6.54914L27.1575 6.56904L27.1684 6.02084L26.7121 5.71687L26.1577 6.54914ZM25.6056 6.29736L25.2696 7.23923L25.2847 7.24461L25.3 7.24951L25.6056 6.29736ZM23.8538 6.73005L24.6775 7.29706L24.6832 7.28858L23.8538 6.73005ZM23.7709 9.58609L22.9542 10.1631L22.9639 10.1768L22.974 10.1903L23.7709 9.58609ZM24.4795 11.0618L24.4791 10.0618C24.2507 10.0619 24.0702 10.0066 23.9106 9.90552L23.3754 10.7502L22.8401 11.595C23.3367 11.9096 23.8923 12.062 24.4799 12.0618L24.4795 11.0618ZM23.3754 10.7502L23.9345 9.92117C23.7873 9.82188 23.6401 9.66105 23.5116 9.38839L22.607 9.81455L21.7023 10.2407C21.9582 10.7839 22.3233 11.2469 22.8162 11.5793L23.3754 10.7502ZM22.607 9.81455L23.5184 9.40308C23.406 9.15416 23.3306 8.81334 23.3304 8.35026L22.3304 8.35066L21.3304 8.35105C21.3307 9.02398 21.4396 9.65908 21.6956 10.226L22.607 9.81455ZM22.3304 8.35066L23.3304 8.35026C23.3302 7.76298 23.4226 7.32032 23.5683 6.99091L22.6537 6.58653L21.7391 6.18214C21.4531 6.8289 21.3301 7.56233 21.3304 8.35105L22.3304 8.35066ZM22.6537 6.58653L23.5683 6.99091C23.7188 6.6506 23.9018 6.44758 24.0961 6.322L23.5533 5.48217L23.0104 4.64235C22.4369 5.01307 22.0203 5.54629 21.7391 6.18214L22.6537 6.58653ZM23.5533 5.48217L24.1083 6.314C24.3129 6.1775 24.56 6.09777 24.8855 6.09764L24.8851 5.09764L24.8847 4.09764C24.2023 4.09792 23.5615 4.27454 22.9982 4.65034L23.5533 5.48217ZM24.8851 5.09764L24.8855 6.09764C25.1315 6.09755 25.4318 6.15409 25.7954 6.30063L26.1692 5.37314L26.543 4.44564C25.9945 4.22454 25.4387 4.09743 24.8847 4.09764L24.8851 5.09764ZM26.1692 5.37314L27.1687 5.40498L27.228 3.54496L26.2285 3.51311L25.229 3.48127L25.1697 5.34129L26.1692 5.37314ZM26.2285 3.51311L27.2273 3.56266C27.2256 3.59515 27.2175 3.64216 27.1945 3.69437C27.1714 3.74676 27.1414 3.78621 27.1157 3.81187L26.4083 3.10504L25.7009 2.39821C25.4115 2.68786 25.2498 3.05905 25.2297 3.46357L26.2285 3.51311ZM26.4083 3.10504L27.1157 3.81187C27.096 3.83158 27.0571 3.8634 26.9976 3.88895C26.9368 3.915 26.8771 3.92486 26.8286 3.92487L26.8283 2.92487L26.8279 1.92487C26.3853 1.92505 25.9957 2.10319 25.7009 2.39821L26.4083 3.10504ZM26.8283 2.92487L26.8286 3.92487C26.7689 3.9249 26.6981 3.91221 26.6278 3.88032C26.5593 3.8492 26.5155 3.81081 26.4935 3.78733L27.2243 3.10472L27.9551 2.42211C27.6707 2.11767 27.2808 1.92469 26.8279 1.92487L26.8283 2.92487ZM27.2243 3.10472L26.5423 3.83604C26.4994 3.79606 26.4544 3.73621 26.4245 3.65948C26.3954 3.58468 26.3921 3.52331 26.3935 3.49164L27.3925 3.53665L28.3915 3.58166C28.4115 3.13732 28.2579 2.70126 27.9064 2.37339L27.2243 3.10472ZM27.3925 3.53665L26.3928 3.513L26.2275 10.4971L27.2273 10.5207L28.227 10.5444L28.3922 3.5603L27.3925 3.53665ZM27.2273 10.5207L26.2285 10.4712C26.2301 10.4386 26.2385 10.3864 26.2658 10.3263C26.2935 10.2653 26.331 10.2174 26.3667 10.1843L27.0474 10.9168L27.7282 11.6493C28.0411 11.3585 28.2059 10.9768 28.226 10.5703L27.2273 10.5207ZM27.0474 10.9168L26.3667 10.1843C26.3998 10.1535 26.4464 10.122 26.504 10.1C26.5607 10.0782 26.6091 10.073 26.6391 10.073L26.6395 11.073L26.6399 12.073C27.0393 12.0728 27.422 11.9338 27.7282 11.6493L27.0474 10.9168ZM26.6395 11.073L26.6391 10.073C26.6607 10.0729 26.6974 10.0763 26.7423 10.0912C26.788 10.1064 26.8287 10.1292 26.8609 10.1545L26.2434 10.9411L25.6259 11.7277C25.9265 11.9636 26.2799 12.0731 26.6399 12.073L26.6395 11.073ZM26.2434 10.9411L26.8891 10.1775C26.943 10.223 26.9991 10.2905 27.0387 10.3787C27.0776 10.4654 27.0873 10.5425 27.0873 10.5928L26.0873 10.5932L25.0873 10.5936C25.0875 11.0126 25.2549 11.4149 25.5978 11.7047L26.2434 10.9411ZM26.0873 10.5932L27.0873 10.5928L27.0872 10.3768L26.0872 10.3772L25.0872 10.3776L25.0873 10.5936L26.0873 10.5932ZM26.0872 10.3772L25.4086 9.64263C25.2794 9.762 25.1187 9.8726 24.9181 9.97012L25.3554 10.8695L25.7927 11.7688C26.152 11.5941 26.4791 11.3765 26.7658 11.1117L26.0872 10.3772ZM25.3554 10.8695L24.9393 9.96015C24.7881 10.0293 24.6377 10.0617 24.4791 10.0618L24.4795 11.0618L24.4799 12.0618C24.9292 12.0616 25.3628 11.9658 25.7715 11.7788L25.3554 10.8695ZM24.575 9.98177L24.5754 10.9818C24.9894 10.9816 25.391 10.8951 25.7661 10.7138L25.331 9.81347L24.8959 8.91309C24.807 8.95603 24.7047 8.98172 24.5747 8.98177L24.575 9.98177ZM25.331 9.81347L25.7785 10.7077C26.1162 10.5387 26.4277 10.3126 26.6723 10.0101L25.8948 9.38125L25.1173 8.75236C25.0901 8.78601 25.0257 8.84801 24.8834 8.91922L25.331 9.81347ZM25.8948 9.38125L26.6723 10.0101C26.878 9.75586 27.0851 9.40303 27.1091 8.96823L26.1106 8.91316L25.1121 8.85809C25.1163 8.78269 25.1357 8.73449 25.1426 8.71949C25.1488 8.7059 25.1459 8.71698 25.1173 8.75235L25.8948 9.38125ZM26.1106 8.91316L27.1104 8.93306L27.1575 6.56904L26.1577 6.54914L25.1579 6.52924L25.1108 8.89326L26.1106 8.91316ZM26.1577 6.54914L26.7121 5.71687C26.4691 5.55502 26.194 5.43598 25.9112 5.34521L25.6056 6.29736L25.3 7.24951C25.4652 7.30256 25.5582 7.35138 25.6033 7.38141L26.1577 6.54914ZM25.6056 6.29736L25.9416 5.35548C25.6248 5.24251 25.2949 5.17748 24.9571 5.17762L24.9575 6.17762L24.9579 7.17762C25.0361 7.17759 25.1383 7.19238 25.2696 7.23923L25.6056 6.29736ZM24.9575 6.17762L24.9571 5.17762C24.1756 5.17793 23.4787 5.49668 23.0243 6.17153L23.8538 6.73005L24.6832 7.28858C24.7246 7.22723 24.7635 7.17769 24.9579 7.17762L24.9575 6.17762ZM23.8538 6.73005L23.03 6.16307C22.6176 6.76231 22.4821 7.52626 22.4824 8.3146L23.4824 8.3142L24.4824 8.3138C24.4821 7.71014 24.5942 7.41799 24.6775 7.29703L23.8538 6.73005ZM23.4824 8.3142L22.4824 8.3146C22.4826 8.96302 22.5837 9.63877 22.9542 10.1631L23.7709 9.58609L24.5876 9.00908C24.5738 8.98955 24.4826 8.81738 24.4824 8.3138L23.4824 8.3142ZM23.7709 9.58609L22.974 10.1903C23.3665 10.7079 23.9317 10.982 24.5754 10.9818L24.575 9.98177L24.5747 8.98177C24.5563 8.98178 24.5485 8.98 24.5489 8.98009C24.549 8.98011 24.5507 8.98048 24.5535 8.98146C24.5563 8.98244 24.5597 8.98384 24.5635 8.98568C24.5673 8.98753 24.5707 8.98952 24.5737 8.99146C24.5766 8.99339 24.5785 8.99491 24.5793 8.99563C24.5812 8.99723 24.5769 8.994 24.5677 8.98191L23.7709 9.58609Z" fill="#A3C26D" mask="url(#path-3-outside-2_2951_2494)"/>
</svg>
